<svg width="81" height="81" viewBox="0 0 81 81" fill="none" xmlns="http://www.w3.org/2000/svg">
<path d="M49.298 19.9432C50.0754 15.9531 54.4905 10.4985 63.1072 13.5045C71.7238 16.5104 69.7654 29.0381 61.5049 30.1468C50.479 31.6291 48.9242 24.4492 48.9242 24.4492L44.0699 21.4847C43.9633 21.4199 43.8798 21.323 43.8315 21.208C43.7831 21.093 43.7723 20.9657 43.8006 20.8441C43.8288 20.7226 43.8947 20.6131 43.9889 20.5312C44.0831 20.4493 44.2007 20.3991 44.3251 20.3879L49.298 19.9432Z" fill="white" stroke="#3A3A3A" stroke-width="0.984728" stroke-miterlimit="10"/>
<circle cx="20.8247" cy="21.94" r="14.8814" fill="white"/>
<circle cx="60.2935" cy="53.6431" r="14.8814" fill="white"/>
<path d="M58.4823 18.7231C57.6812 17.3358 54.72 17.4128 54.6191 20.1816C54.5182 22.9504 58.4823 25.15 58.4823 25.15C58.4823 25.15 62.488 22.9564 62.3871 20.1816C62.2862 17.4069 59.2834 17.3358 58.4823 18.7231Z" fill="#1DBF73"/>
<path d="M24.5234 16.9462C24.0358 18.1679 23.1877 19.2125 22.0916 19.9411C20.9956 20.6697 19.7036 21.0478 18.3874 21.0253C18.178 20.1895 18.2372 19.309 18.5568 18.5087C18.8763 17.7085 19.4399 17.029 20.1677 16.5668C20.7988 16.0475 21.6086 15.7963 22.4232 15.8673C23.2377 15.9382 23.9918 16.3256 24.5234 16.9462Z" fill="#3A3A3A"/>
<path d="M30.5293 33.164C30.5293 33.164 27.396 28.7944 19.895 26.4228C13.2961 24.3359 7.433 24.7331 6.35295 25.3794C6.35295 25.3794 8.41809 34.1245 15.8478 35.9269C25.9065 38.3577 30.5293 33.164 30.5293 33.164Z" fill="#3A3A3A"/>
<path d="M20.8142 36.7742C12.601 36.7742 5.94284 30.1221 5.94284 21.9164C5.94284 13.7106 12.601 7.05859 20.8142 7.05859C29.0274 7.05859 35.6855 13.7106 35.6855 21.9164C35.6855 30.1221 29.0274 36.7742 20.8142 36.7742Z" stroke="#3A3A3A" stroke-width="0.984728" stroke-miterlimit="10"/>
<path d="M22.0628 23.7366C19.939 23.7366 18.2174 22.0165 18.2174 19.8947C18.2174 17.7728 19.939 16.0527 22.0628 16.0527C24.1865 16.0527 25.9082 17.7728 25.9082 19.8947C25.9082 22.0165 24.1865 23.7366 22.0628 23.7366Z" stroke="#3A3A3A" stroke-width="0.984728" stroke-miterlimit="10"/>
<path d="M18.3894 21.0269C24.9172 19.8055 25.9082 14.9023 25.9082 14.9023" stroke="#3A3A3A" stroke-width="0.984728" stroke-miterlimit="10"/>
<path d="M26.7622 44.0491L24.4241 47.7962C24.4241 47.7962 17.8964 47.4819 16.0093 47.7962C14.1222 48.1104 13.7958 49.059 13.7958 52.0057C13.7958 54.9523 13.0599 59.6776 13.7958 61.4622C14.5316 63.2468 20.0031 62.9385 24.5309 62.9385C29.0588 62.9385 32.5244 63.567 33.8953 61.6757C35.2661 59.7844 35.1593 51.3713 34.8388 48.7448C34.5184 46.1183 29.0529 47.6954 29.0529 47.6954L27.7651 44.138C27.7283 44.0394 27.6644 43.9532 27.5806 43.8895C27.4968 43.8257 27.3967 43.7869 27.2918 43.7776C27.1868 43.7683 27.0814 43.7888 26.9877 43.8369C26.894 43.8849 26.8158 43.9585 26.7622 44.0491Z" fill="white" stroke="#3A3A3A" stroke-width="0.984728" stroke-miterlimit="10"/>
<path d="M17.4609 52.6953H31.5193" stroke="#3A3A3A" stroke-width="0.984728" stroke-miterlimit="10"/>
<path d="M17.4609 57.2188H31.5193" stroke="#3A3A3A" stroke-width="0.984728" stroke-miterlimit="10"/>
<path d="M58.949 45.5322C58.949 45.5322 58.5454 48.3603 60.2189 49.8722C61.8924 51.384 62.0526 52.5461 61.1387 54.3011C60.2248 56.056 60.2426 57.8584 61.6906 60.058C63.1386 62.2576 59.1745 62.9809 62.5808 68.3229C62.5808 68.3229 68.3489 66.7102 70.3488 64.2556C72.3486 61.8011 71.3279 59.726 69.9096 58.558C68.4913 57.39 69.3874 55.0007 68.0462 53.3584C66.349 51.2595 65.0791 50.8149 64.5628 48.4552C63.9635 45.5974 60.5275 44.8267 58.949 45.5322Z" fill="#3A3A3A"/>
<path d="M59.8909 68.5652C68.1041 68.5652 74.7622 61.9131 74.7622 53.7074C74.7622 45.5017 68.1041 38.8496 59.8909 38.8496C51.6777 38.8496 45.0195 45.5017 45.0195 53.7074C45.0195 61.9131 51.6777 68.5652 59.8909 68.5652Z" stroke="#3A3A3A" stroke-width="0.984728" stroke-miterlimit="10"/>
<path d="M59.8904 53.7131C62.0141 53.7131 63.7358 51.993 63.7358 49.8712C63.7358 47.7494 62.0141 46.0293 59.8904 46.0293C57.7666 46.0293 56.0449 47.7494 56.0449 49.8712C56.0449 51.993 57.7666 53.7131 59.8904 53.7131Z" stroke="#3A3A3A" stroke-width="0.984728" stroke-miterlimit="10"/>
<path d="M46.334 60.3937C50.037 57.702 55.2354 54.4648 61.6089 57.3937" stroke="#3A3A3A" stroke-width="0.984728" stroke-miterlimit="10"/>
<path d="M54.8616 56.2285C53.7578 59.0092 51.8945 60.3787 51.2239 62.1574C50.6839 63.5863 50.1973 64.9973 50.1973 64.9973" stroke="#3A3A3A" stroke-width="0.984728" stroke-miterlimit="10"/>
<path d="M58.3499 56.377C57.163 58.5647 56.1898 60.2011 55.8634 62.0628C55.537 63.9244 54.4629 67.5351 54.4629 67.5351" stroke="#3A3A3A" stroke-width="0.984728" stroke-miterlimit="10"/>
<path d="M58.9473 68.3225C59.5882 65.9984 59.3627 63.1525 59.968 61.4035C60.3731 60.0159 60.6102 58.5847 60.6741 57.1406" stroke="#3A3A3A" stroke-width="0.984728" stroke-miterlimit="10"/>
</svg>
