<svg width="81" height="81" viewBox="0 0 81 81" fill="none" xmlns="http://www.w3.org/2000/svg">
<g clip-path="url(#clip0_2122_70448)">
<rect x="23.5938" y="15.2305" width="32.6132" height="51.0135" fill="white"/>
<path d="M54.1234 67.4653H25.9287C24.8589 67.4653 23.8328 67.0446 23.0757 66.2958C22.3186 65.547 21.8923 64.5313 21.8906 63.4714V17.5095C21.8923 16.4496 22.3186 15.4337 23.0757 14.6849C23.8328 13.9361 24.8589 13.5156 25.9287 13.5156H54.1364C55.2052 13.5173 56.2296 13.9387 56.9853 14.6873C57.741 15.4359 58.1663 16.4508 58.168 17.5095V63.4585C58.1688 63.985 58.0648 64.5063 57.8618 64.9929C57.6589 65.4794 57.361 65.9214 56.9853 66.2936C56.6096 66.6659 56.1633 66.9609 55.6722 67.1619C55.1811 67.363 54.6548 67.4661 54.1234 67.4653ZM25.0704 15.8992C24.8629 15.8992 24.6637 15.9804 24.5164 16.1252C24.369 16.27 24.2853 16.4665 24.2836 16.6721V64.3217C24.2853 64.5273 24.369 64.7239 24.5164 64.8686C24.6637 65.0134 24.8629 65.0946 25.0704 65.0946H54.9947C55.0972 65.0946 55.1986 65.0747 55.2933 65.0358C55.388 64.997 55.474 64.94 55.5464 64.8682C55.6189 64.7964 55.6764 64.7113 55.7156 64.6175C55.7548 64.5237 55.775 64.4232 55.775 64.3217V16.6593C55.775 16.4542 55.6928 16.2576 55.5464 16.1126C55.4001 15.9676 55.2016 15.8863 54.9947 15.8863L25.0704 15.8992Z" fill="#3A3A3A"/>
<path d="M29.8535 51.1113H50.1738" stroke="#3A3A3A" stroke-width="0.975372" stroke-miterlimit="10"/>
<path d="M48.2381 29.8906H44.3691V46.6714H48.2381V29.8906Z" fill="#1DBF73"/>
<path d="M41.5291 35.3672H37.6602V46.666H41.5291V35.3672Z" fill="#1DBF73"/>
<path d="M34.8123 41.1582H30.9434V46.6723H34.8123V41.1582Z" fill="#1DBF73"/>
<path d="M29.8535 47.0918H50.1738" stroke="#3A3A3A" stroke-width="0.975372" stroke-miterlimit="10"/>
</g>
<defs>
<clipPath id="clip0_2122_70448">
<rect width="36.2773" height="53.9432" fill="white" transform="translate(21.877 13.5293)"/>
</clipPath>
</defs>
</svg>
