<svg width="64" height="65" viewBox="0 0 64 65" fill="none" xmlns="http://www.w3.org/2000/svg">
<path d="M14.78 19.5194L3.50781 20.8857L5.64105 38.4849L16.9132 37.1186L14.78 19.5194Z" fill="white" stroke="#3A3A3A" stroke-width="0.632471" stroke-miterlimit="10"/>
<path d="M9.62766 20.2457L6.56641 20.6069L8.6497 38.2614L11.711 37.9002L9.62766 20.2457Z" fill="#D0E500"/>
<path d="M51.5697 19.52C51.5697 19.52 52.3342 26.5052 47.7383 35.3844L56.4906 36.8049C56.4906 36.8049 62.179 28.164 59.9909 19.52H51.5697Z" fill="white" stroke="#3A3A3A" stroke-width="0.632471" stroke-miterlimit="10"/>
<path d="M57.2483 27.9485C57.5697 26.3116 56.9248 24.8067 55.8077 24.5874C54.6907 24.368 53.5246 25.5172 53.2031 27.1542C52.8817 28.7911 53.5266 30.296 54.6437 30.5153C55.7607 30.7347 56.9268 29.5855 57.2483 27.9485Z" fill="#D0E500"/>
<path d="M29.1562 6.58855L30.8151 6.25121C32.867 5.8365 34.9622 7.64081 35.4977 10.2746C36.0331 12.9083 34.8075 15.3997 32.7494 15.8175L31.0967 16.1548" fill="white"/>
<path d="M29.1562 6.58855L30.8151 6.25121C32.867 5.8365 34.9622 7.64081 35.4977 10.2746C36.0331 12.9083 34.8075 15.3997 32.7494 15.8175L31.0967 16.1548" stroke="#3A3A3A" stroke-width="0.632471" stroke-miterlimit="10"/>
<path d="M31.0969 16.1519C33.1473 15.7359 34.3749 13.2571 33.8388 10.6154C33.3028 7.97378 31.2062 6.16955 29.1558 6.58558C27.1055 7.00161 25.8779 9.48036 26.4139 12.122C26.9499 14.7637 29.0466 16.5679 31.0969 16.1519Z" fill="white" stroke="#3A3A3A" stroke-width="0.632471" stroke-miterlimit="10"/>
<path d="M30.6638 14.0132C31.7979 13.7831 32.4769 12.4124 32.1805 10.9517C31.8842 9.49098 30.7246 8.49338 29.5905 8.72349C28.4564 8.9536 27.7774 10.3243 28.0738 11.785C28.3702 13.2457 29.5298 14.2433 30.6638 14.0132Z" fill="white" stroke="#3A3A3A" stroke-width="0.632471" stroke-miterlimit="10"/>
<path d="M32.6855 8.09857L34.3444 7.76123" stroke="#3A3A3A" stroke-width="0.632471" stroke-miterlimit="10"/>
<path d="M33.8125 10.5309L35.4435 10.1997" stroke="#3A3A3A" stroke-width="0.632471" stroke-miterlimit="10"/>
<path d="M33.7754 13.199L35.3785 12.874" stroke="#3A3A3A" stroke-width="0.632471" stroke-miterlimit="10"/>
<circle cx="34.7143" cy="48.184" r="10.4604" fill="#D0E500" stroke="#D0E500" stroke-width="0.78453" stroke-miterlimit="10"/>
<mask id="mask0_3282_14222" style="mask-type:alpha" maskUnits="userSpaceOnUse" x="21" y="11" width="25" height="49">
<path fill-rule="evenodd" clip-rule="evenodd" d="M41.9193 11.4961H21.334V49.9582H24.0193C24.8199 55.0994 29.2668 59.0337 34.6325 59.0337C40.565 59.0337 45.3742 54.2245 45.3742 48.292C45.3742 45.1718 44.0438 42.3623 41.9193 40.3998V11.4961Z" fill="#C4C4C4"/>
</mask>
<g mask="url(#mask0_3282_14222)">
<path d="M28.4921 44.4714C28.563 45.3074 29.1152 49.23 29.1152 49.23L38.3278 43.2153L37.2818 34.324L34.4584 33.5634C36.4226 31.4069 35.8341 30.9531 35.289 30.9229C34.3934 30.8883 30.6078 32.6645 29.1152 33.9135C27.9557 34.8772 27.9167 37.6863 28.4921 44.4714Z" fill="white"/>
<path d="M28.6249 46.1569L38.5282 43.27C38.5282 43.27 40.8916 62.7822 35.1893 68.059C33.4483 69.6607 33.2824 67.999 32.8357 68.059L27.6055 66.4899L28.6249 46.1569Z" fill="#3A3A3A" stroke="#3A3A3A" stroke-width="0.612504" stroke-miterlimit="10"/>
<path d="M29.3347 33.7364C29.3347 33.7364 29.0924 28.8572 28.9799 27.5218C28.8674 26.1864 28.4304 23.2303 29.3347 23.0618C30.2389 22.8932 30.8187 25.5165 31.4071 27.6039C31.7715 28.9335 32.0604 30.2825 32.2724 31.6447H32.5233C32.5233 31.6447 32.956 25.5943 33.0469 24.4793C33.1377 23.3643 33.2891 22.0332 33.8213 22.0332C34.5698 22.0332 34.9765 23.8267 35.1193 26.5278C35.2621 29.2288 35.288 30.9229 35.288 30.9229" fill="white"/>
<path d="M29.3347 33.7364C29.3347 33.7364 29.0924 28.8572 28.9799 27.5218C28.8674 26.1864 28.4304 23.2303 29.3347 23.0618C30.2389 22.8932 30.8187 25.5165 31.4071 27.6039C31.7715 28.9335 32.0604 30.2825 32.2724 31.6447H32.5233C32.5233 31.6447 32.956 25.5943 33.0469 24.4793C33.1377 23.3643 33.2891 22.0332 33.8213 22.0332C34.5698 22.0332 34.9765 23.8267 35.1193 26.5278C35.2621 29.2288 35.288 30.9229 35.288 30.9229" stroke="#3A3A3A" stroke-width="0.612504" stroke-miterlimit="10"/>
<path d="M31.4947 36.4244C32.5696 35.5649 33.5618 34.6071 34.4584 33.5634C36.4226 31.4069 35.8341 30.9531 35.289 30.9229C34.3934 30.8883 30.6078 32.6645 29.1152 33.9135C27.9557 34.8772 27.9167 37.6863 28.4921 44.4714C28.563 45.3074 29.1152 49.23 29.1152 49.23L38.3278 43.2153" stroke="#3A3A3A" stroke-width="0.612504" stroke-miterlimit="10"/>
<path d="M38.3763 43.4686L37.2168 33.8398" stroke="#3A3A3A" stroke-width="0.612504" stroke-miterlimit="10"/>
<path d="M35.7917 31.5536C35.7225 32.271 35.7918 34.4275 36.6268 34.3454C37.4618 34.2633 38.6601 30.7886 38.3097 29.7082C38.0458 28.9001 37.0984 28.6278 36.6268 29.1334C36.1552 29.6391 35.7917 31.5536 35.7917 31.5536Z" fill="white" stroke="#3A3A3A" stroke-width="0.612504" stroke-miterlimit="10"/>
</g>
<path d="M18.248 7.24756L20.3517 12.3653" stroke="#3A3A3A" stroke-width="0.632471" stroke-miterlimit="10"/>
<path d="M12.9492 12.3496L17.4911 14.9642" stroke="#3A3A3A" stroke-width="0.632471" stroke-miterlimit="10"/>
<path d="M45.9162 8.625L43.0059 13.6649" stroke="#3A3A3A" stroke-width="0.632471" stroke-miterlimit="10"/>
<path d="M50.4703 14.3599L44.9531 15.6853" stroke="#3A3A3A" stroke-width="0.632471" stroke-miterlimit="10"/>
</svg>
