<svg width="81" height="81" viewBox="0 0 81 81" fill="none" xmlns="http://www.w3.org/2000/svg">
<g clip-path="url(#clip0_2122_70432)">
<path d="M71.5707 12.6387H20.1339L8.45312 48.643H59.8899L71.5707 12.6387Z" fill="white" stroke="#3A3A3A" stroke-width="1.4332" stroke-miterlimit="10"/>
<path d="M10.7754 42.5547H62.219" stroke="#3A3A3A" stroke-width="1.4332" stroke-miterlimit="10"/>
<path d="M28.9363 72.2309L42.8708 72.334L30.8671 66.0882L36.3433 48.6426H30.8946L25.6314 65.4011L12.7344 72.1072L27.1155 72.2172L28.902 72.334L28.9363 72.2309Z" fill="white" stroke="#3A3A3A" stroke-width="1.4332" stroke-miterlimit="10"/>
<path d="M44.8527 32.6868C43.9127 32.1926 43.0812 31.515 42.4075 30.6941C41.7338 29.8732 41.2314 28.9256 40.9301 27.9072C40.6288 26.8889 40.5346 25.8205 40.6532 24.7652C40.7717 23.7098 41.1006 22.6889 41.6204 21.7628C42.1401 20.8367 42.8402 20.0242 43.6793 19.3732C44.5183 18.7222 45.4794 18.246 46.5056 17.9727C47.5318 17.6995 48.6024 17.6346 49.6541 17.782C50.7058 17.9295 51.7173 18.2862 52.6288 18.8311L44.8527 32.6868Z" fill="#1DBF73"/>
<path d="M33.3557 28.2888C33.3557 28.2888 30.5504 32.895 27.9608 30.0003C25.3713 27.1057 30.8332 20.7062 34.085 21.0336C37.3368 21.361 35.1268 26.5624 35.1268 26.5624C35.1268 26.5624 38.1554 23.1097 41.5709 24.3301C44.9864 25.5504 41.6751 29.085 41.6751 29.085C41.6751 29.085 47.3676 26.0267 48.0894 31.1611C48.8112 36.2956 42.2257 37.7913 40.3431 36.0054C39.8008 35.4861 39.4 34.8369 39.1787 34.1194C38.9573 33.402 38.9227 32.6399 39.0781 31.9053C39.0781 31.9053 35.9304 35.544 33.393 33.3935C30.8555 31.243 33.3557 28.2888 33.3557 28.2888Z" stroke="#3A3A3A" stroke-width="1.55214" stroke-linejoin="bevel"/>
</g>
<defs>
<clipPath id="clip0_2122_70432">
<rect width="64.5399" height="60.7539" fill="white" transform="translate(7.74609 12.123)"/>
</clipPath>
</defs>
</svg>
