<svg width="91" height="28" viewBox="0 0 91 28" fill="none" xmlns="http://www.w3.org/2000/svg">
<g id="New logo" clip-path="url(#clip0_2700_6281)">
<g id="Group">
<path id="Vector" d="M82.9 13.6H79.7C77.6 13.6 76.5 15.1 76.5 17.7V27H70.4V13.6H67.8C65.7 13.6 64.6 15.1 64.6 17.7V27H58.5V8.6H64.6V11.4C65.6 9.2 67 8.6 69 8.6H76.4V11.4C77.4 9.2 78.8 8.6 80.8 8.6H82.8V13.6H82.9ZM57.3 19.2H44.7C45 21.3 46.3 22.4 48.5 22.4C50.1 22.4 51.3 21.7 51.6 20.6L57 22.1C55.7 25.3 52.4 27.2 48.5 27.2C41.9 27.2 38.9 22.1 38.9 17.7C38.9 13.4 41.5 8.3 48.1 8.3C55.1 8.3 57.4 13.5 57.4 17.4C57.4 18.3 57.4 18.8 57.3 19.2ZM51.4 15.7C51.3 14.1 50.1 12.7 48.1 12.7C46.2 12.7 45 13.5 44.7 15.7H51.4ZM28.3 27H33.6L40.3 8.7H34.2L31 19.4L27.6 8.6H21.5L28.3 27ZM3.4 27H9.4V13.6H15.1V27H21.1V8.6H9.5V7.5C9.5 6.3 10.4 5.5 11.8 5.5H15.3V0.5H10.9C6.4 0.5 3.4 3.2 3.4 7.1V8.6H0V13.6H3.4V27Z" fill="#7A7D85"/>
</g>
<g id="Group_2">
<path id="Vector_2" d="M90.4008 23.8C90.4008 25.9 88.8008 27.5 86.6008 27.5C84.4008 27.5 82.8008 25.9 82.8008 23.8C82.8008 21.7 84.4008 20.1 86.6008 20.1C88.8008 20 90.4008 21.6 90.4008 23.8ZM89.7008 23.8C89.7008 22 88.4008 20.7 86.6008 20.7C84.8008 20.7 83.5008 22 83.5008 23.8C83.5008 25.6 84.8008 26.9 86.6008 26.9C88.4008 26.9 89.7008 25.5 89.7008 23.8ZM88.0008 24.6L88.1008 25.5H87.4008L87.3008 24.6C87.3008 24.3 87.1008 24.1 86.8008 24.1H86.0008V25.5H85.3008V22H86.7008C87.4008 22 87.9008 22.4 87.9008 23.1C87.9008 23.5 87.7008 23.7 87.4008 23.9C87.8008 24 87.9008 24.2 88.0008 24.6ZM86.1008 23.6H86.8008C87.2008 23.6 87.3008 23.3 87.3008 23.1C87.3008 22.8 87.1008 22.6 86.8008 22.6H86.1008V23.6Z" fill="#7A7D85"/>
</g>
</g>
<defs>
<clipPath id="clip0_2700_6281">
<rect width="91" height="27" fill="white" transform="translate(0 0.5)"/>
</clipPath>
</defs>
</svg>
