<svg width="20" height="21" viewBox="0 0 20 21" fill="none" xmlns="http://www.w3.org/2000/svg">
<path d="M20 10.5022C20.0004 8.59104 19.4532 6.7198 18.4231 5.11003C17.393 3.50026 15.9232 2.21938 14.1877 1.41906C12.4522 0.618741 10.5237 0.332497 8.63053 0.594222C6.73739 0.855948 4.9589 1.65468 3.50564 2.89585C2.05237 4.13701 0.985206 5.76863 0.430495 7.5975C-0.124217 9.42636 -0.143239 11.3759 0.37568 13.2152C0.894599 15.0546 1.92973 16.7067 3.35849 17.976C4.78726 19.2453 6.54983 20.0786 8.4375 20.3772V13.3922H5.89875V10.5022H8.4375V8.29843C8.38284 7.78399 8.44199 7.26382 8.61078 6.7748C8.77957 6.28577 9.05386 5.83986 9.4142 5.46866C9.77455 5.09746 10.2121 4.81007 10.6959 4.62684C11.1797 4.44362 11.6979 4.36905 12.2137 4.40843C12.9638 4.41828 13.7121 4.48346 14.4525 4.60343V7.06718H13.1925C12.9779 7.03911 12.7597 7.05967 12.554 7.12733C12.3484 7.19498 12.1607 7.30801 12.0046 7.45804C11.8486 7.60807 11.7283 7.79127 11.6526 7.99408C11.577 8.19689 11.5479 8.41411 11.5675 8.62968V10.5047H14.3412L13.8975 13.3947H11.5625V20.3834C13.9153 20.0112 16.058 18.8114 17.6048 16.9999C19.1516 15.1884 20.001 12.8842 20 10.5022Z" fill="#74767E"/>
</svg>
