<svg width="81" height="81" viewBox="0 0 81 81" fill="none" xmlns="http://www.w3.org/2000/svg">
<path d="M25.9131 28.1168L23.3008 26.5688L25.0423 25.7947L34.9111 23.4727L37.2332 25.7947L33.7501 29.6649L25.9131 28.1168Z" fill="white"/>
<path d="M34.7908 24.9982C32.2571 24.7203 24.8203 24.8665 23.1677 25.9159C21.7966 26.786 21.793 27.744 21.793 27.744" fill="white"/>
<path d="M34.7908 24.9982C32.2571 24.7203 24.8203 24.8665 23.1677 25.9159C21.7966 26.786 21.793 27.744 21.793 27.744" stroke="#3A3A3A" stroke-width="1.06514" stroke-miterlimit="10"/>
<path d="M53.4887 52.884L46.5225 57.5281L36.4602 38.9516L34.9121 34.3074L41.8783 28.1152L46.5225 39.7256L53.4887 52.884Z" fill="white"/>
<path d="M30.967 28.8341C27.4643 28.198 24.32 27.1596 21.7935 27.7373C19.2671 28.315 16.5212 34.4025 15.7534 36.4464C15.0917 38.2087 12.046 42.4279 12.4628 43.7588C12.8797 45.0897 14.865 44.8996 15.1173 44.6473" fill="white"/>
<path d="M30.967 28.8341C27.4643 28.198 24.32 27.1596 21.7935 27.7373C19.2671 28.315 16.5212 34.4025 15.7534 36.4464C15.0917 38.2087 12.046 42.4279 12.4628 43.7588C12.8797 45.0897 14.865 44.8996 15.1173 44.6473" stroke="#3A3A3A" stroke-width="1.06514" stroke-miterlimit="10"/>
<path d="M5.5158 56.3086L4.5536 59.7518C4.53374 59.8221 4.53326 59.8965 4.55225 59.9669C4.57124 60.0374 4.60903 60.1014 4.66149 60.1522C4.71395 60.203 4.77911 60.2386 4.85018 60.2553C4.92126 60.2719 4.99556 60.269 5.06512 60.2468L8.19508 59.2433C8.29567 59.211 8.37966 59.1407 8.42903 59.0473C8.47839 58.9539 8.48925 58.8449 8.45924 58.7436C8.27801 58.1474 7.97022 57.5972 7.55694 57.1307C7.14367 56.6642 6.6346 56.2924 6.0645 56.0406C6.01122 56.0179 5.95372 56.007 5.89583 56.0085C5.83794 56.01 5.78104 56.0239 5.72901 56.0493C5.67698 56.0747 5.63097 56.1111 5.59419 56.1558C5.55741 56.2005 5.53069 56.2526 5.5158 56.3086Z" fill="#1DBF73"/>
<path d="M69.9456 56.303C70.2355 54.0064 70.0326 51.6743 69.3506 49.4622C68.6685 47.2501 67.5228 45.2088 65.9899 43.4742C64.457 41.7396 62.572 40.3516 60.4606 39.4026C58.3492 38.4536 56.0598 37.9655 53.7449 37.9707C53.0997 37.9726 52.4552 38.0117 51.8145 38.0878L69.9456 56.303Z" fill="#1DBF73" stroke="#1DBF73" stroke-width="1.06514" stroke-miterlimit="10"/>
<path d="M37.5769 52.0371C37.2495 54.3504 37.423 56.7071 38.0857 58.9475C38.7484 61.1879 39.8848 63.2598 41.4179 65.0228C42.951 66.7857 44.845 68.1987 46.9718 69.166C49.0985 70.1332 51.4083 70.6322 53.7447 70.629C54.0226 70.629 54.2968 70.629 54.571 70.6071L37.5769 52.0371Z" fill="#1DBF73" stroke="#1DBF73" stroke-width="1.06514" stroke-miterlimit="10"/>
<path d="M18.1296 51.2169L13.0402 56.3064L8.25781 51.5277L49.4049 10.3807C49.5465 10.2389 49.7146 10.1265 49.8997 10.0498C50.0848 9.97311 50.2831 9.93359 50.4835 9.93359C50.6838 9.93359 50.8822 9.97311 51.0673 10.0498C51.2523 10.1265 51.4205 10.2389 51.5621 10.3807L54.1836 13.0021C54.4701 13.2887 54.631 13.6774 54.631 14.0826C54.631 14.4878 54.4701 14.8764 54.1836 15.163L24.0783 45.2866" fill="white"/>
<path d="M18.1296 51.2169L13.0402 56.3064L8.25781 51.5277L49.4049 10.3807C49.5465 10.2389 49.7146 10.1265 49.8997 10.0498C50.0848 9.97311 50.2831 9.93359 50.4835 9.93359C50.6838 9.93359 50.8822 9.97311 51.0673 10.0498C51.2523 10.1265 51.4205 10.2389 51.5621 10.3807L54.1836 13.0021C54.4701 13.2887 54.631 13.6774 54.631 14.0826C54.631 14.4878 54.4701 14.8764 54.1836 15.163L24.0783 45.2866" stroke="#3A3A3A" stroke-width="1.06514" stroke-miterlimit="10"/>
<path d="M46.3613 13.4277L51.1399 18.2064" stroke="#3A3A3A" stroke-width="1.06514" stroke-miterlimit="10"/>
<path d="M12.9054 56.4571L8.77749 58.2852C8.30488 57.149 7.40182 56.246 6.26562 55.7734L8.09373 51.6602" fill="white"/>
<path d="M12.9054 56.4571L8.77749 58.2852C8.30488 57.149 7.40182 56.246 6.26562 55.7734L8.09373 51.6602" stroke="#3A3A3A" stroke-width="1.06514" stroke-miterlimit="10"/>
<path d="M48.7463 15.8184L10.6484 53.9161" stroke="#3A3A3A" stroke-width="1.06514" stroke-miterlimit="10"/>
<path d="M41.6113 27.7383C44.4412 30.7547 69.9507 56.308 69.9507 56.308C69.5842 59.9675 67.9111 63.3723 65.2379 65.8982C60.1594 70.6513 54.5727 70.6074 54.5727 70.6074" fill="white"/>
<path d="M41.6113 27.7383C44.4412 30.7547 69.9507 56.308 69.9507 56.308C69.5842 59.9675 67.9111 63.3723 65.2379 65.8982C60.1594 70.6513 54.5727 70.6074 54.5727 70.6074" stroke="#3A3A3A" stroke-width="1.06514" stroke-miterlimit="10"/>
<path d="M35.9971 23.9056C33.3046 22.2023 30.469 21.6731 28.7216 22.3602C27.4175 22.872 26.4635 24.863 26.4635 24.863" fill="white"/>
<path d="M35.9971 23.9056C33.3046 22.2023 30.469 21.6731 28.7216 22.3602C27.4175 22.872 26.4635 24.863 26.4635 24.863" stroke="#3A3A3A" stroke-width="1.06514" stroke-miterlimit="10"/>
<path d="M54.6329 70.6724L36.286 50.629C36.286 50.629 29.6061 51.0385 23.9097 51.3127C18.2133 51.5869 16.1548 51.0385 16.8422 49.0496C17.5296 47.0606 24.1547 45.1849 25.8329 44.8522C27.5111 44.5195 33.7924 41.9784 35.5072 40.1284C37.222 38.2783 34.9104 35.0938 34.2532 35.0938" fill="white"/>
<path d="M54.6329 70.6724L36.286 50.629C36.286 50.629 29.6061 51.0385 23.9097 51.3127C18.2133 51.5869 16.1548 51.0385 16.8422 49.0496C17.5296 47.0606 24.1547 45.1849 25.8329 44.8522C27.5111 44.5195 33.7924 41.9784 35.5072 40.1284C37.222 38.2783 34.9104 35.0938 34.2532 35.0938" stroke="#3A3A3A" stroke-width="1.06514" stroke-miterlimit="10"/>
<path d="M44.0254 59.0826L58.9172 45.2109L69.9479 56.3076C69.9479 56.3076 69.3593 62.2855 65.2351 65.8978C59.4656 70.947 54.57 70.607 54.57 70.607L44.0254 59.0826Z" fill="#3A3A3A"/>
<mask id="path-23-inside-1_2122_70427" fill="white">
<path d="M51.7439 18.461L51.145 19.0788L45.6348 13.3987L49.1526 9.76995C49.5058 9.40578 49.9847 9.20117 50.484 9.20117C50.9834 9.20117 51.4623 9.40578 51.8154 9.76995L54.6591 12.7032C54.8345 12.8837 54.9736 13.098 55.0686 13.334C55.1635 13.57 55.2124 13.8231 55.2124 14.0786C55.2124 14.3341 55.1635 14.5871 55.0686 14.8231C54.9736 15.0591 54.8345 15.2734 54.6591 15.4539L52.4445 17.7383"/>
</mask>
<path d="M51.7439 18.461L51.145 19.0788L45.6348 13.3987L49.1526 9.76995C49.5058 9.40578 49.9847 9.20117 50.484 9.20117C50.9834 9.20117 51.4623 9.40578 51.8154 9.76995L54.6591 12.7032C54.8345 12.8837 54.9736 13.098 55.0686 13.334C55.1635 13.57 55.2124 13.8231 55.2124 14.0786C55.2124 14.3341 55.1635 14.5871 55.0686 14.8231C54.9736 15.0591 54.8345 15.2734 54.6591 15.4539L52.4445 17.7383" fill="#1DBF73"/>
<path d="M51.145 19.0788L50.3805 19.8204L51.1452 20.6087L51.9097 19.8202L51.145 19.0788ZM45.6348 13.3987L44.87 12.6573L44.151 13.3989L44.8703 14.1403L45.6348 13.3987ZM49.1526 9.76995L48.388 9.02844L48.3879 9.02855L49.1526 9.76995ZM51.8154 9.76995L52.5802 9.02855L52.5801 9.02844L51.8154 9.76995ZM54.6591 12.7032L53.8943 13.4446L53.8953 13.4456L54.6591 12.7032ZM54.6591 15.4539L53.8953 14.7115L53.8943 14.7125L54.6591 15.4539ZM50.9792 17.7196L50.3803 18.3373L51.9097 19.8202L52.5086 19.2025L50.9792 17.7196ZM51.9095 18.3371L46.3993 12.657L44.8703 14.1403L50.3805 19.8204L51.9095 18.3371ZM46.3995 14.1401L49.9174 10.5114L48.3879 9.02855L44.87 12.6573L46.3995 14.1401ZM49.9173 10.5115C50.0735 10.3504 50.278 10.2663 50.484 10.2663V8.13603C49.6913 8.13603 48.9381 8.46114 48.388 9.02844L49.9173 10.5115ZM50.484 10.2663C50.6901 10.2663 50.8946 10.3504 51.0508 10.5115L52.5801 9.02844C52.0299 8.46114 51.2767 8.13603 50.484 8.13603V10.2663ZM51.0507 10.5114L53.8943 13.4446L55.4239 11.9618L52.5802 9.02855L51.0507 10.5114ZM53.8953 13.4456C53.9731 13.5257 54.0365 13.6226 54.0804 13.7315L56.0568 12.9365C55.9107 12.5735 55.6958 12.2417 55.4229 11.9609L53.8953 13.4456ZM54.0804 13.7315C54.1243 13.8406 54.1472 13.9587 54.1472 14.0786H56.2775C56.2775 13.6875 56.2028 13.2994 56.0568 12.9365L54.0804 13.7315ZM54.1472 14.0786C54.1472 14.1985 54.1243 14.3164 54.0804 14.4255L56.0568 15.2206C56.2027 14.8577 56.2775 14.4697 56.2775 14.0786H54.1472ZM54.0804 14.4255C54.0365 14.5345 53.9731 14.6314 53.8953 14.7115L55.4229 16.1962C55.6958 15.9154 55.9107 15.5836 56.0568 15.2206L54.0804 14.4255ZM53.8943 14.7125L51.6797 16.997L53.2093 18.4797L55.4239 16.1953L53.8943 14.7125Z" fill="#1DBF73" mask="url(#path-23-inside-1_2122_70427)"/>
</svg>
