<svg width="64" height="65" viewBox="0 0 64 65" fill="none" xmlns="http://www.w3.org/2000/svg">
<rect x="14.9629" y="10.2832" width="42.9915" height="35.3355" fill="white"/>
<path d="M15.0332 18.7036V10.3203" stroke="#3A3A3A" stroke-width="0.674483" stroke-miterlimit="10"/>
<path d="M15.0332 43.1076V34.0601" stroke="#3A3A3A" stroke-width="0.7126" stroke-miterlimit="10"/>
<path d="M40.7122 45.9653H34.3588H33.3457" stroke="#3A3A3A" stroke-width="0.674483" stroke-miterlimit="10"/>
<path d="M57.873 10.3203V32.7129" stroke="#3A3A3A" stroke-width="0.674483" stroke-miterlimit="10"/>
<path d="M57.8738 10.2832H15.0332V13.8718H57.8738V10.2832Z" fill="#D0E500" stroke="#D0E500" stroke-width="0.674483" stroke-miterlimit="10"/>
<path d="M17.2252 12.8733C17.6495 12.8733 17.9934 12.5294 17.9934 12.1051C17.9934 11.6808 17.6495 11.3369 17.2252 11.3369C16.801 11.3369 16.457 11.6808 16.457 12.1051C16.457 12.5294 16.801 12.8733 17.2252 12.8733Z" fill="white"/>
<path d="M19.735 12.8733C20.1592 12.8733 20.5032 12.5294 20.5032 12.1051C20.5032 11.6808 20.1592 11.3369 19.735 11.3369C19.3107 11.3369 18.9668 11.6808 18.9668 12.1051C18.9668 12.5294 19.3107 12.8733 19.735 12.8733Z" fill="white"/>
<path d="M22.2389 12.8733C22.6632 12.8733 23.0071 12.5294 23.0071 12.1051C23.0071 11.6808 22.6632 11.3369 22.2389 11.3369C21.8146 11.3369 21.4707 11.6808 21.4707 12.1051C21.4707 12.5294 21.8146 12.8733 22.2389 12.8733Z" fill="white"/>
<path d="M17.7046 34.3052C22.1398 34.3052 25.7353 30.7097 25.7353 26.2744C25.7353 21.8391 22.1398 18.2437 17.7046 18.2437C13.2693 18.2437 9.67383 21.8391 9.67383 26.2744C9.67383 30.7097 13.2693 34.3052 17.7046 34.3052Z" fill="white" stroke="#3A3A3A" stroke-width="0.7126" stroke-miterlimit="10"/>
<path d="M16.043 22.1723L17.5784 21.8601C19.4777 21.4762 21.4172 23.1463 21.9127 25.5842C22.4083 28.0221 21.2739 30.3281 19.3689 30.7149L17.8391 31.0271" fill="white"/>
<path d="M16.043 22.1723L17.5784 21.8601C19.4777 21.4762 21.4172 23.1463 21.9127 25.5842C22.4083 28.0221 21.2739 30.3281 19.3689 30.7149L17.8391 31.0271" stroke="#3A3A3A" stroke-width="0.7126" stroke-miterlimit="10"/>
<path d="M17.8405 31.0247C19.7383 30.6397 20.8747 28.3453 20.3785 25.9001C19.8824 23.4549 17.9416 21.7848 16.0438 22.1699C14.1459 22.555 13.0096 24.8494 13.5058 27.2946C14.0019 29.7398 15.9426 31.4098 17.8405 31.0247Z" fill="white" stroke="#3A3A3A" stroke-width="0.7126" stroke-miterlimit="10"/>
<path d="M17.4391 29.0453C18.4888 28.8323 19.1173 27.5635 18.843 26.2115C18.5687 24.8594 17.4953 23.936 16.4456 24.149C15.3959 24.362 14.7673 25.6307 15.0417 26.9828C15.316 28.3349 16.3894 29.2583 17.4391 29.0453Z" fill="white" stroke="#3A3A3A" stroke-width="0.585432" stroke-miterlimit="10"/>
<path d="M19.3086 23.5706L20.8441 23.2583" stroke="#3A3A3A" stroke-width="0.7126" stroke-miterlimit="10"/>
<path d="M20.3535 25.8221L21.8632 25.5156" stroke="#3A3A3A" stroke-width="0.7126" stroke-miterlimit="10"/>
<path d="M20.3203 28.2915L21.8042 27.9907" stroke="#3A3A3A" stroke-width="0.7126" stroke-miterlimit="10"/>
<path d="M9.655 51.6728C10.2265 51.7618 9.10947 54.6416 9.80344 54.6936C10.4974 54.7455 13.0098 51.9585 13.7966 51.9808C15.37 52.029 17.0957 52.0402 18.8325 52.0624C23.0816 52.1144 31.3276 52.2925 32.4929 51.1866C33.7881 49.9583 33.9773 45.594 32.4929 44.3954C30.4481 42.7328 23.0334 42.9109 18.2535 43.0594C14.3347 43.167 9.84426 42.8961 8.35241 44.3954C7.43578 45.3194 7.11292 47.6759 7.23909 49.4647C7.28363 50.5149 7.79204 51.3907 9.655 51.6728Z" fill="white" stroke="#3A3A3A" stroke-width="0.7126" stroke-miterlimit="10"/>
<path d="M11.8782 45.8279L12.3383 47.0191C12.3448 47.0368 12.3564 47.0522 12.3716 47.0634C12.3867 47.0747 12.4048 47.0812 12.4237 47.0822L13.6966 47.1564C13.7172 47.1559 13.7374 47.1619 13.7542 47.1737C13.7711 47.1854 13.7838 47.2023 13.7905 47.2218C13.7971 47.2413 13.7973 47.2623 13.7911 47.282C13.7849 47.3016 13.7726 47.3187 13.756 47.3308L12.7688 48.1398C12.7533 48.1508 12.7417 48.1664 12.7357 48.1845C12.7297 48.2025 12.7296 48.222 12.7354 48.24L13.0583 49.4758C13.0624 49.4948 13.0608 49.5146 13.0539 49.5327C13.0469 49.5509 13.0349 49.5666 13.0191 49.578C13.0034 49.5894 12.9847 49.596 12.9653 49.597C12.9459 49.5979 12.9266 49.5932 12.9098 49.5835L11.8373 48.9117C11.8209 48.9027 11.8023 48.8979 11.7835 48.8979C11.7647 48.8979 11.7462 48.9027 11.7297 48.9117L10.6572 49.602C10.6407 49.6139 10.6209 49.6203 10.6006 49.6203C10.5803 49.6203 10.5605 49.6139 10.544 49.602C10.5276 49.59 10.5153 49.5732 10.509 49.5539C10.5026 49.5346 10.5026 49.5137 10.5088 49.4944L10.8316 48.2586C10.8369 48.2405 10.8366 48.2212 10.8306 48.2033C10.8246 48.1854 10.8133 48.1697 10.7982 48.1584L9.81109 47.3494C9.79473 47.3374 9.78254 47.3207 9.77625 47.3014C9.76996 47.2822 9.76989 47.2614 9.77605 47.2421C9.78221 47.2228 9.79429 47.2059 9.81057 47.1939C9.82685 47.1818 9.84651 47.1752 9.86676 47.175L11.1434 47.1007C11.1621 47.0993 11.18 47.0926 11.1951 47.0814C11.2102 47.0703 11.2218 47.0551 11.2287 47.0377L11.6926 45.8464C11.6981 45.827 11.7092 45.8098 11.7247 45.7968C11.7401 45.7839 11.759 45.7759 11.7791 45.7739C11.7991 45.7719 11.8192 45.776 11.8369 45.7856C11.8546 45.7952 11.869 45.81 11.8782 45.8279Z" fill="#D0E500"/>
<path d="M17.7746 45.8279L18.2348 47.0191C18.242 47.0371 18.2542 47.0526 18.27 47.0638C18.2858 47.075 18.3045 47.0814 18.3239 47.0822L19.5968 47.1564C19.6173 47.1559 19.6376 47.1619 19.6544 47.1737C19.6713 47.1854 19.684 47.2023 19.6907 47.2218C19.6973 47.2413 19.6975 47.2623 19.6913 47.282C19.6851 47.3016 19.6728 47.3187 19.6562 47.3308L18.6653 48.1398C18.651 48.1518 18.6402 48.1675 18.6343 48.1852C18.6284 48.2029 18.6276 48.2219 18.6319 48.24L18.9585 49.4758C18.9626 49.4948 18.961 49.5146 18.9541 49.5327C18.9471 49.5509 18.9351 49.5666 18.9193 49.578C18.9036 49.5894 18.8849 49.596 18.8655 49.597C18.8461 49.5979 18.8268 49.5932 18.81 49.5835L17.7338 48.9117C17.7173 48.9027 17.6988 48.8979 17.68 48.8979C17.6612 48.8979 17.6427 48.9027 17.6262 48.9117L16.5537 49.602C16.5369 49.613 16.5171 49.6187 16.497 49.6183C16.477 49.6179 16.4574 49.6115 16.441 49.5999C16.4246 49.5883 16.4121 49.5721 16.405 49.5532C16.398 49.5344 16.3968 49.5139 16.4015 49.4944L16.7281 48.2586C16.7334 48.2405 16.733 48.2212 16.7271 48.2033C16.7211 48.1854 16.7098 48.1697 16.6947 48.1584L15.7076 47.3494C15.6912 47.3374 15.679 47.3207 15.6727 47.3014C15.6664 47.2822 15.6664 47.2614 15.6725 47.2421C15.6787 47.2228 15.6908 47.2059 15.707 47.1939C15.7233 47.1818 15.743 47.1752 15.7632 47.175L17.0398 47.1007C17.0586 47.0993 17.0765 47.0926 17.0916 47.0814C17.1067 47.0703 17.1183 47.0551 17.1252 47.0377L17.5891 45.8464C17.5946 45.827 17.6057 45.8098 17.6211 45.7968C17.6366 45.7839 17.6555 45.7759 17.6755 45.7739C17.6956 45.7719 17.7157 45.776 17.7334 45.7856C17.7511 45.7952 17.7654 45.81 17.7746 45.8279Z" fill="#D0E500"/>
<path d="M23.6675 45.8278L24.1313 47.0191C24.1385 47.0371 24.1507 47.0526 24.1665 47.0638C24.1823 47.075 24.2011 47.0814 24.2204 47.0822L25.4933 47.1564C25.5129 47.1579 25.5316 47.1651 25.5471 47.1771C25.5626 47.1891 25.5742 47.2054 25.5805 47.224C25.5869 47.2426 25.5876 47.2626 25.5826 47.2816C25.5777 47.3006 25.5673 47.3177 25.5527 47.3308L24.5618 48.1398C24.5475 48.1518 24.5368 48.1675 24.5309 48.1852C24.525 48.2029 24.5241 48.2219 24.5284 48.24L24.855 49.4758C24.8598 49.4953 24.8585 49.5158 24.8515 49.5347C24.8445 49.5535 24.8319 49.5698 24.8155 49.5814C24.7991 49.593 24.7796 49.5994 24.7595 49.5997C24.7394 49.6001 24.7197 49.5944 24.7028 49.5834L23.6303 48.9117C23.6139 48.9026 23.5954 48.8979 23.5765 48.8979C23.5577 48.8979 23.5392 48.9026 23.5227 48.9117L22.4502 49.602C22.4334 49.613 22.4137 49.6187 22.3936 49.6183C22.3735 49.6179 22.354 49.6115 22.3376 49.5999C22.3212 49.5883 22.3086 49.572 22.3016 49.5532C22.2945 49.5344 22.2933 49.5139 22.2981 49.4944L22.6246 48.2586C22.629 48.2404 22.6281 48.2214 22.6222 48.2037C22.6163 48.186 22.6056 48.1703 22.5912 48.1584L21.6152 47.3308C21.6006 47.3177 21.5902 47.3006 21.5853 47.2816C21.5803 47.2626 21.5811 47.2426 21.5874 47.224C21.5937 47.2054 21.6053 47.1891 21.6208 47.1771C21.6364 47.1651 21.6551 47.1579 21.6746 47.1564L22.9475 47.0822C22.9669 47.0814 22.9856 47.075 23.0014 47.0638C23.0172 47.0526 23.0294 47.0371 23.0366 47.0191L23.4708 45.8278C23.4708 45.8018 23.4811 45.7767 23.4996 45.7583C23.518 45.7399 23.543 45.7295 23.5691 45.7295C23.5952 45.7295 23.6202 45.7399 23.6387 45.7583C23.6571 45.7767 23.6675 45.8018 23.6675 45.8278Z" fill="#D0E500"/>
<path d="M29.2043 45.8279L29.6682 47.0191C29.6751 47.0366 29.6868 47.0517 29.7019 47.0629C29.7169 47.074 29.7349 47.0807 29.7536 47.0822L31.0302 47.1564C31.0504 47.1567 31.0701 47.1633 31.0864 47.1753C31.1027 47.1874 31.1147 47.2043 31.1209 47.2236C31.127 47.2429 31.127 47.2636 31.1207 47.2829C31.1144 47.3021 31.1022 47.3189 31.0858 47.3308L30.0987 48.1398C30.0836 48.1512 30.0723 48.1668 30.0663 48.1847C30.0604 48.2026 30.06 48.2219 30.0653 48.24L30.3882 49.4758C30.3944 49.4952 30.3943 49.516 30.388 49.5353C30.3816 49.5546 30.3694 49.5715 30.3529 49.5834C30.3365 49.5953 30.3167 49.6018 30.2963 49.6018C30.276 49.6018 30.2562 49.5954 30.2397 49.5835L29.1672 48.9117C29.1507 48.9027 29.1322 48.8979 29.1134 48.8979C29.0946 48.8979 29.0761 48.9027 29.0596 48.9117L27.9834 49.602C27.9666 49.6118 27.9473 49.6165 27.9279 49.6155C27.9085 49.6146 27.8898 49.608 27.8741 49.5966C27.8584 49.5852 27.8463 49.5694 27.8393 49.5513C27.8324 49.5332 27.8309 49.5134 27.8349 49.4944L28.1578 48.2586C28.1637 48.2405 28.1636 48.221 28.1576 48.203C28.1516 48.185 28.1399 48.1694 28.1244 48.1584L27.1373 47.3494C27.1209 47.3374 27.1087 47.3207 27.1024 47.3014C27.0961 47.2822 27.0961 47.2614 27.1022 47.2421C27.1084 47.2228 27.1205 47.2059 27.1367 47.1939C27.153 47.1818 27.1727 47.1752 27.1929 47.175L28.4695 47.1007C28.4884 47.0997 28.5065 47.0932 28.5217 47.082C28.5368 47.0708 28.5484 47.0554 28.5549 47.0377L29.0188 45.8464C29.0242 45.827 29.0354 45.8098 29.0508 45.7968C29.0663 45.7839 29.0852 45.7759 29.1052 45.7739C29.1253 45.7719 29.1454 45.776 29.1631 45.7856C29.1808 45.7952 29.1951 45.81 29.2043 45.8279Z" fill="#D0E500"/>
<path d="M46.0833 25.6655C45.6083 25.736 46.5397 28.1371 45.9608 28.1779C45.3819 28.2187 43.2926 25.8993 42.6209 25.9216C41.3108 25.9587 42.0382 25.9698 40.5909 25.9884C37.0505 26.0292 35.4399 26.1813 34.4676 25.2461C33.3877 24.2219 33.1947 20.6927 34.4008 19.3084C35.6069 17.9242 37.0914 18.3881 41.0808 18.4957C44.3465 18.5885 45.9051 18.3584 47.1669 19.609C47.9314 20.3772 48.1986 22.3404 48.1095 23.8322C48.0613 24.6969 47.6382 25.428 46.0833 25.6655Z" fill="white" stroke="#3A3A3A" stroke-width="0.7126" stroke-miterlimit="10"/>
<path d="M62.7678 54.4598H40.7129V32.6758H57.8729H62.7678V54.4598Z" fill="white" stroke="#3A3A3A" stroke-width="0.7126" stroke-miterlimit="10"/>
<path d="M52.9012 45.6199C52.3633 45.9418 51.766 46.1518 51.1451 46.2372C50.5241 46.3226 49.8923 46.2816 49.2876 46.1168C48.6828 45.952 48.1176 45.6668 47.6258 45.2782C47.134 44.8895 46.7258 44.4056 46.4257 43.8553C46.1255 43.305 45.9396 42.6998 45.8791 42.0759C45.8187 41.4521 45.8848 40.8224 46.0737 40.2247C46.2625 39.6271 46.5702 39.0737 46.9782 38.5978C47.3861 38.122 47.886 37.7335 48.4479 37.4556L52.9012 45.6199Z" fill="#D0E500" stroke="#D0E500" stroke-width="0.674483" stroke-miterlimit="10"/>
<path d="M51.1307 46.6407C51.1307 46.6407 51.8506 48.9675 50.099 48.9787C48.3474 48.9898 47.8167 45.2342 48.8966 44.2322C49.9765 43.2302 51.075 45.5311 51.075 45.5311C51.075 45.5311 50.8152 43.4752 52.2551 42.6921C53.695 41.9091 53.9029 44.0875 53.9029 44.0875C53.9029 44.0875 54.5671 41.2485 56.5192 42.5363C58.4712 43.824 57.0053 46.496 55.8437 46.6184C55.5061 46.6468 55.1668 46.5888 54.8578 46.4499C54.5487 46.311 54.2801 46.0957 54.0773 45.8243C54.0773 45.8243 54.3704 47.973 52.9009 48.1994C51.4313 48.4257 51.1307 46.6407 51.1307 46.6407Z" stroke="#3A3A3A" stroke-width="0.674483" stroke-linejoin="bevel"/>
<path d="M8.84911 16.2912L6.46289 11.5967" stroke="#3A3A3A" stroke-width="0.7126" stroke-miterlimit="10"/>
<path d="M6.46287 19.6794L1.44922 18.002" stroke="#3A3A3A" stroke-width="0.7126" stroke-miterlimit="10"/>
<path d="M4.79371 25.0864H0.240234" stroke="#3A3A3A" stroke-width="0.7126" stroke-miterlimit="10"/>
<path d="M45.7499 21.3198H36.4277" stroke="#3A3A3A" stroke-width="0.7126" stroke-miterlimit="10"/>
<path d="M45.7499 23.5317H36.4277" stroke="#3A3A3A" stroke-width="0.7126" stroke-miterlimit="10"/>
</svg>
