<svg width="21" height="21" viewBox="0 0 21 21" fill="none" xmlns="http://www.w3.org/2000/svg">
<path d="M19.125 0.5H0.875C0.375 0.5 0 0.875 0 1.375V19.75C0 20.125 0.375 20.5 0.875 20.5H19.25C19.75 20.5 20.125 20.125 20.125 19.625V1.375C20 0.875 19.625 0.5 19.125 0.5ZM5.875 17.5H3V8H6V17.5H5.875ZM4.5 6.75C3.5 6.75 2.75 5.875 2.75 5C2.75 4 3.5 3.25 4.5 3.25C5.5 3.25 6.25 4 6.25 5C6.125 5.875 5.375 6.75 4.5 6.75ZM17 17.5H14V12.875C14 11.75 14 10.375 12.5 10.375C11 10.375 10.75 11.625 10.75 12.875V17.625H7.75V8H10.625V9.25C11 8.5 12 7.75 13.375 7.75C16.375 7.75 16.875 9.75 16.875 12.25V17.5H17Z" fill="#74767E"/>
</svg>
