<svg width="64" height="65" viewBox="0 0 64 65" fill="none" xmlns="http://www.w3.org/2000/svg">
<path d="M20.5806 30.1195L7.80905 37.0766C6.81641 37.6173 6.45006 38.8604 6.99078 39.853L12.9009 50.7026C13.4416 51.6953 14.6847 52.0616 15.6773 51.5209L28.4489 44.5638C29.4415 44.0231 29.8078 42.78 29.2671 41.7874L23.357 30.9378C22.8163 29.9451 21.5732 29.5788 20.5806 30.1195Z" fill="white" stroke="#3A3A3A" stroke-width="1.09616" stroke-miterlimit="10"/>
<path d="M14.8641 38.3063L21.3016 38.327C21.367 38.3274 21.4311 38.3449 21.4876 38.3778C21.544 38.4108 21.5908 38.4579 21.6233 38.5145C21.6558 38.5712 21.673 38.6355 21.6729 38.7008C21.6729 38.7662 21.6556 38.8303 21.623 38.887L18.147 44.308C18.1118 44.3625 18.063 44.4069 18.0054 44.4368C17.9478 44.4667 17.8834 44.4811 17.8186 44.4786C17.7537 44.476 17.6907 44.4566 17.6356 44.4222C17.5805 44.3879 17.5353 44.3398 17.5045 44.2827L14.5414 38.8443C14.5138 38.7883 14.5008 38.7263 14.5034 38.664C14.506 38.6017 14.5242 38.541 14.5563 38.4875C14.5884 38.434 14.6334 38.3894 14.6871 38.3578C14.7409 38.3261 14.8017 38.3084 14.8641 38.3063Z" fill="#D0E500"/>
<path d="M36.5219 6.92931L21.9783 6.90139C20.848 6.89922 19.9299 7.81384 19.9277 8.9442L19.904 21.2991C19.9018 22.4294 20.8164 23.3475 21.9467 23.3497L36.4903 23.3776C37.6207 23.3798 38.5387 22.4652 38.5409 21.3348L38.5646 8.97998C38.5668 7.84962 37.6522 6.93148 36.5219 6.92931Z" fill="white" stroke="#3A3A3A" stroke-width="1.09616" stroke-miterlimit="10"/>
<path d="M19.8984 16.869C20.6865 15.6066 22.8378 12.8652 25.7733 13.7242C28.7089 14.5832 27.9732 18.3666 30.7482 18.8148C33.3813 19.2369 34.9649 14.4376 38.5391 13.9595" stroke="#3A3A3A" stroke-width="1.09616" stroke-miterlimit="10"/>
<path d="M32.1818 14.0003C33.4256 14.0003 34.4339 12.992 34.4339 11.7482C34.4339 10.5044 33.4256 9.49609 32.1818 9.49609C30.938 9.49609 29.9297 10.5044 29.9297 11.7482C29.9297 12.992 30.938 14.0003 32.1818 14.0003Z" fill="#D0E500"/>
<path d="M19.9082 20.7949L38.7094 20.831L38.7073 21.9515C38.7069 22.1408 38.6692 22.3282 38.5964 22.503C38.5237 22.6777 38.4172 22.8364 38.2831 22.97C38.1489 23.1037 37.9898 23.2096 37.8148 23.2817C37.6397 23.3538 37.4522 23.3907 37.2628 23.3904L21.345 23.3598C20.9626 23.3591 20.5962 23.2064 20.3264 22.9356C20.0565 22.6647 19.9053 22.2977 19.9061 21.9154L19.9082 20.7949Z" fill="#3A3A3A"/>
<path d="M55.033 31.5578L41.4693 26.3098C40.4151 25.9019 39.2299 26.4259 38.822 27.4801L34.3638 39.0026C33.9559 40.0568 34.4799 41.2421 35.5341 41.65L49.0977 46.8979C50.1519 47.3058 51.3372 46.7819 51.745 45.7277L56.2032 34.2051C56.6111 33.1509 56.0872 31.9657 55.033 31.5578Z" fill="white" stroke="#3A3A3A" stroke-width="1.09616" stroke-miterlimit="10"/>
<path d="M38.5469 28.0161L55.9381 34.7105" stroke="#3A3A3A" stroke-width="1.09616" stroke-miterlimit="10"/>
<path d="M44.5479 33.2433L40.6745 31.7446C40.4821 31.6702 40.2658 31.7658 40.1914 31.9582L37.5095 38.8898C37.435 39.0822 37.5307 39.2985 37.723 39.3729L41.5964 40.8716C41.7888 40.946 42.0051 40.8504 42.0795 40.658L44.7614 33.7264C44.8359 33.534 44.7402 33.3177 44.5479 33.2433Z" fill="#D0E500"/>
<path d="M46.5371 34.4497L52.3567 36.6887" stroke="#3A3A3A" stroke-width="1.09616" stroke-miterlimit="10"/>
<path d="M45.6738 36.6875L51.4934 38.9265" stroke="#3A3A3A" stroke-width="1.09616" stroke-miterlimit="10"/>
<path d="M44.8164 38.9268L50.636 41.1657" stroke="#3A3A3A" stroke-width="1.09616" stroke-miterlimit="10"/>
<path d="M43.9551 41.1641L49.7747 43.403" stroke="#3A3A3A" stroke-width="1.09616" stroke-miterlimit="10"/>
<path d="M9.91016 19.5444L15.5481 25.1737" stroke="#3A3A3A" stroke-width="1.09616" stroke-miterlimit="10"/>
<path d="M6.47266 27.001L13.9586 27.9505" stroke="#3A3A3A" stroke-width="1.09616" stroke-miterlimit="10"/>
<path d="M48.0343 9.98584L43.8438 17.2427" stroke="#3A3A3A" stroke-width="1.09616" stroke-miterlimit="10"/>
<path d="M54.5905 18.2437L46.6465 20.1522" stroke="#3A3A3A" stroke-width="1.09616" stroke-miterlimit="10"/>
</svg>
