<svg width="20" height="21" viewBox="0 0 20 21" fill="none" xmlns="http://www.w3.org/2000/svg">
<path d="M10 0.5C4.5 0.5 0 5 0 10.5C0 14.75 2.625 18.375 6.375 19.75C6.25 19 6.25 17.75 6.375 16.875C6.5 16.125 7.5 11.875 7.5 11.875C7.5 11.875 7.25 11.375 7.25 10.5C7.25 9.125 8.125 8 9.125 8C10 8 10.375 8.625 10.375 9.375C10.375 10.25 9.875 11.5 9.5 12.75C9.25 13.75 10 14.5 11 14.5C12.75 14.5 14.125 12.625 14.125 9.875C14.125 7.5 12.375 5.75 10 5.75C7.125 5.75 5.5 7.875 5.5 10.125C5.5 11 5.875 11.875 6.25 12.375C6.25 12.625 6.25 12.75 6.25 12.875C6.125 13.25 6 13.875 6 14C6 14.125 5.875 14.25 5.625 14.125C4.375 13.5 3.625 11.75 3.625 10.25C3.625 7.125 5.875 4.25 10.25 4.25C13.75 4.25 16.375 6.75 16.375 10C16.375 13.5 14.25 16.25 11.125 16.25C10.125 16.25 9.125 15.75 8.875 15.125C8.875 15.125 8.375 17 8.25 17.5C8 18.375 7.375 19.5 7 20.125C8 20.375 9 20.5 10 20.5C15.5 20.5 20 16 20 10.5C20 5 15.5 0.5 10 0.5Z" fill="#74767E"/>
</svg>
