<svg width="56" height="43" viewBox="0 0 56 43" fill="none" xmlns="http://www.w3.org/2000/svg">
<path d="M18.0633 8.68765L19.1675 6.75537L22.48 12.8283L25.2404 15.0366L26.6206 13.6564L31.8654 8.68765L34.6258 7.85953L35.7299 8.68765L34.6258 15.8647L30.7612 25.5261L26.0685 26.9063L23.0321 31.599L17.2352 35.7396L15.3029 37.6719C13.5547 39.2361 9.39571 42.3093 6.74572 42.0885C3.43324 41.8125 2.32904 39.0521 1.22488 37.6719C0.341555 36.5677 0.488776 34.8194 0.672803 34.0833L3.4332 32.1511L14.7508 25.5261L16.131 23.5938L15.3029 21.1095L12.5425 15.8647L13.3706 14.4845L14.4748 15.0366L16.9592 18.6251V16.9689L16.131 8.68765L17.2352 7.85953L18.0633 8.68765Z" fill="white"/>
<path d="M55.4146 31.1349C55.4136 30.1942 55.2414 29.2612 54.9062 28.3804C55.2136 29.3159 55.3848 30.2897 55.4146 31.2727C55.412 31.2251 55.4146 31.18 55.4146 31.1349Z" fill="#D0E500" stroke="#D0E500" stroke-width="0.781245" stroke-miterlimit="10"/>
<path d="M52.8059 36.9573C52.8059 36.9573 45.9153 35.1818 39.7949 33.5566C40.206 34.8134 40.931 35.9482 41.9032 36.857C42.8754 37.7658 44.0638 38.4195 45.3591 38.758C46.6545 39.0965 48.0155 39.109 49.3171 38.7944C50.6186 38.4798 51.8192 37.848 52.8084 36.9573H52.8059Z" fill="#D0E500" stroke="#D0E500" stroke-width="0.781245" stroke-miterlimit="10"/>
<path d="M54.5867 27.6393C54.0647 26.5996 53.3162 25.6861 52.3948 24.9641C51.4733 24.242 50.4015 23.7291 49.2558 23.462C48.11 23.1948 46.9185 23.18 45.7663 23.4186C44.6141 23.6572 43.5295 24.1433 42.5898 24.8422L54.5867 27.6393Z" fill="#D0E500" stroke="#D0E500" stroke-width="0.781245" stroke-miterlimit="10"/>
<path d="M18.3454 9.53438C18.3454 8.0386 18.0204 6.63719 19.1641 6.44687C20.1427 6.2816 20.5366 7.57624 20.8162 9.14884C21.1238 10.8792 22.2141 17.3624 22.2141 17.3624" fill="white"/>
<path d="M18.3454 9.53438C18.3454 8.0386 18.0204 6.63719 19.1641 6.44687C20.1427 6.2816 20.5366 7.57624 20.8162 9.14884C21.1238 10.8792 22.2141 17.3624 22.2141 17.3624" stroke="#3A3A3A" stroke-width="0.781245" stroke-linejoin="bevel"/>
<path d="M0.607422 33.8666C0.607422 33.8666 13.1024 26.7649 15.2374 25.0821C17.3724 23.3993 13.9488 18.4937 13.3616 17.447C12.7745 16.4002 12.1645 15.0004 13.1075 14.4971C14.0504 13.9938 16.5235 17.3894 17.2224 18.7141C17.2224 18.7141 16.2973 10.7008 16.2439 9.31353C16.188 7.85111 17.2606 7.41038 17.9239 8.2643C18.6865 9.22839 19.3403 18.5084 19.3403 18.5084" stroke="#3A3A3A" stroke-width="0.781245" stroke-linejoin="bevel"/>
<path d="M16.3875 36.3065C16.0169 37.8815 15.1637 39.3062 13.9435 40.3874C12.7233 41.4686 11.1952 42.1539 9.56633 42.3506C7.93745 42.5473 6.28658 42.2457 4.83752 41.4868C3.38846 40.728 2.21127 39.5484 1.46556 38.1082C0.719861 36.6679 0.441697 35.0366 0.668774 33.4353C0.895851 31.8341 1.6172 30.3403 2.73501 29.1566C3.85283 27.9728 5.31303 27.1563 6.91772 26.8178C8.52241 26.4793 10.194 26.6351 11.7058 27.264" stroke="#3A3A3A" stroke-width="0.781245" stroke-linejoin="bevel"/>
<path d="M28.779 11.9886C28.8425 10.7691 28.5782 9.62222 27.8665 9.67982C27.0684 9.74242 26.7227 11.9611 26.4813 13.6038C26.2652 15.0587 26.0898 16.3584 26.0898 16.3584" fill="white"/>
<path d="M28.779 11.9886C28.8425 10.7691 28.5782 9.62222 27.8665 9.67982C27.0684 9.74242 26.7227 11.9611 26.4813 13.6038C26.2652 15.0587 26.0898 16.3584 26.0898 16.3584" stroke="#222325" stroke-width="0.781245" stroke-linejoin="bevel"/>
<path d="M31.0717 10.8112C31.3259 9.36634 31.7428 6.99241 31.0717 6.45152C30.4821 5.97573 29.6865 6.51913 29.4603 7.70359C29.2061 8.99072 28.1895 15.9673 28.1895 15.9673" fill="white"/>
<path d="M31.0717 10.8112C31.3259 9.36634 31.7428 6.99241 31.0717 6.45152C30.4821 5.97573 29.6865 6.51913 29.4603 7.70359C29.2061 8.99072 28.1895 15.9673 28.1895 15.9673" stroke="#222325" stroke-width="0.781245" stroke-linejoin="bevel"/>
<path d="M33.699 9.48383C34.1692 7.15248 34.3599 5.67754 33.6228 5.24683C32.7967 4.76353 32.0419 5.87286 31.775 6.94964C31.4217 8.377 30.25 15.9495 30.25 15.9495" fill="white"/>
<path d="M33.699 9.48383C34.1692 7.15248 34.3599 5.67754 33.6228 5.24683C32.7967 4.76353 32.0419 5.87286 31.775 6.94964C31.4217 8.377 30.25 15.9495 30.25 15.9495" stroke="#222325" stroke-width="0.781245" stroke-linejoin="bevel"/>
<path d="M26.3723 25.0102C26.146 26.6078 27.089 30.0185 32.2969 31.521C37.5887 33.0435 52.8058 36.965 52.8058 36.965C57.2817 33.4241 54.6384 27.6596 54.6384 27.6596L35.9391 23.2898C35.9391 23.2898 37.3015 19.2832 37.8683 17.7632C38.4351 16.2432 38.8341 14.8283 37.9725 14.5078C37.1109 14.1873 36.1933 15.7048 35.8121 16.2858C35.4308 16.8667 33.9236 19.0528 33.9236 19.0528C33.9236 19.0528 35.4994 10.8493 35.6544 9.70488C35.8451 8.33011 35.4765 7.8418 34.8919 7.8418C34.3836 7.8418 33.8753 8.59304 33.5474 10.1656C33.2196 11.7382 32.3121 16.158 32.3121 16.158" fill="white"/>
<path d="M26.3723 25.0102C26.146 26.6078 27.089 30.0185 32.2969 31.521C37.5887 33.0435 52.8058 36.965 52.8058 36.965C57.2817 33.4241 54.6384 27.6596 54.6384 27.6596L35.9391 23.2898C35.9391 23.2898 37.3015 19.2832 37.8683 17.7632C38.4351 16.2432 38.8341 14.8283 37.9725 14.5078C37.1109 14.1873 36.1933 15.7048 35.8121 16.2858C35.4308 16.8667 33.9236 19.0528 33.9236 19.0528C33.9236 19.0528 35.4994 10.8493 35.6544 9.70488C35.8451 8.33011 35.4765 7.8418 34.8919 7.8418C34.3836 7.8418 33.8753 8.59304 33.5474 10.1656C33.2196 11.7382 32.3121 16.158 32.3121 16.158" stroke="#3A3A3A" stroke-width="0.781245" stroke-linejoin="bevel"/>
<path d="M21.837 17.5115C21.5041 15.5683 20.8558 8.27714 21.7504 8.12689C22.6451 7.97664 22.8815 9.24374 23.1764 10.631C23.5398 12.3288 24.193 16.9966 24.193 16.9966" fill="white"/>
<path d="M21.837 17.5115C21.5041 15.5683 20.8558 8.27714 21.7504 8.12689C22.6451 7.97664 22.8815 9.24374 23.1764 10.631C23.5398 12.3288 24.193 16.9966 24.193 16.9966" stroke="#3A3A3A" stroke-width="0.781245" stroke-linejoin="bevel"/>
<path d="M23.8285 17.5116C23.8742 16.0241 23.3299 11.0299 24.3402 11.52C25.0391 11.3823 25.7101 12.8422 25.9617 15.2136C26.2133 17.5851 27.3139 25.5307 25.4026 28.7761C23.7911 31.5131 18.7408 34.6558 17.5691 35.5598C15.1163 37.4529 7.05664 42.2609 7.05664 42.2609" fill="white"/>
<path d="M23.8285 17.5116C23.8742 16.0241 23.3299 11.0299 24.3402 11.52C25.0391 11.3823 25.7101 12.8422 25.9617 15.2136C26.2133 17.5851 27.3139 25.5307 25.4026 28.7761C23.7911 31.5131 18.7408 34.6558 17.5691 35.5598C15.1163 37.4529 7.05664 42.2609 7.05664 42.2609" stroke="#3A3A3A" stroke-width="0.781245" stroke-linejoin="bevel"/>
<path d="M40.7109 5.97853L48.3919 0.55957" stroke="#3A3A3A" stroke-width="0.781245" stroke-miterlimit="10"/>
<path d="M42.2227 10.31C42.3472 10.31 51.3295 8.65479 51.3295 8.65479L42.2227 10.31Z" fill="#222325"/>
<path d="M42.2227 10.31C42.3472 10.31 51.3295 8.65479 51.3295 8.65479" stroke="#222325" stroke-width="0.781245" stroke-miterlimit="10"/>
<path d="M2.41016 0.726562L10.142 6.39343" stroke="#3A3A3A" stroke-width="0.781245" stroke-miterlimit="10"/>
<path d="M1.59766 9.1001L10.9587 10.0842" stroke="#3A3A3A" stroke-width="0.781245" stroke-miterlimit="10"/>
<path d="M52.8051 36.9569C52.8051 36.9569 54.5843 35.7048 55.2553 33.0354C55.7814 30.942 54.6377 27.6515 54.6377 27.6515L47.7243 26.0664L44.875 34.8584L52.8051 36.9569Z" fill="#3A3A3A"/>
<path d="M0.777344 33.6141C0.777344 33.6141 1.17384 28.7686 5.18208 27.3863C9.19032 26.004 11.8159 27.3863 11.8159 27.3863L0.777344 33.6141Z" fill="#3A3A3A"/>
<path d="M7.41016 42.2606L16.0875 36.6162C16.0875 36.6162 15.7596 39.4133 13.1696 40.9884C10.5797 42.5636 7.41016 42.2606 7.41016 42.2606Z" fill="#3A3A3A"/>
</svg>
