<svg width="81" height="81" viewBox="0 0 81 81" fill="none" xmlns="http://www.w3.org/2000/svg">
<path d="M30.2785 27.2678C30.2785 27.2678 30.0561 10.5308 30.2785 8.34672C30.5009 6.16268 34.3674 5.8577 34.9605 10.4373L37.2922 28.5735" fill="white"/>
<path d="M30.2785 27.2678C30.2785 27.2678 30.0561 10.5308 30.2785 8.34672C30.5009 6.16268 34.3674 5.8577 34.9605 10.4373L37.2922 28.5735" stroke="#3A3A3A" stroke-width="1.44099" stroke-miterlimit="10"/>
<path d="M50.9972 46.62L48.4785 48.5999L51.8662 68.0113C54.3479 64.9337 55.6258 61.076 55.4662 57.1436C55.3066 53.2112 53.7202 49.467 50.9972 46.5957V46.62Z" fill="#1DBF73" stroke="#1DBF73" stroke-width="1.44099" stroke-miterlimit="10"/>
<path d="M29.0056 44.6797C26.6695 46.3976 24.8324 48.6932 23.6789 51.3356C22.5254 53.9781 22.0962 56.8743 22.4346 59.7327C22.7731 62.5912 23.8671 65.3111 25.6067 67.619C27.3463 69.9268 29.6701 71.7412 32.3443 72.8796L29.0056 44.6797Z" fill="#1DBF73" stroke="#1DBF73" stroke-width="1.44099" stroke-miterlimit="10"/>
<path d="M35.4477 27.4316C35.4477 27.4316 34.7504 12.1306 36.621 9.56827C38.4917 7.00597 40.1512 11.0969 40.1463 13.8291C40.1414 16.5612 40.7404 27.417 40.7404 27.417C40.7404 27.417 45.6502 21.9236 51.5763 23.855C57.5024 25.7864 60.6004 30.9887 58.2584 32.7406C55.9164 34.4925 53.2358 29.2562 49.254 29.3824C45.0905 29.5134 42.6012 32.7552 44.5651 36.8655C46.529 40.9759 51.6254 38.729 53.2898 36.8655C54.9542 35.002 55.8919 33.4103 57.7625 33.7063C59.6331 34.0023 59.0342 38.0738 56.8494 41.1311C54.9198 43.839 48.5028 48.556 48.5028 48.556L51.9396 68.1421C49.4982 71.2512 45.9566 73.3318 42.0267 73.9655C37.6079 74.6109 34.3969 73.7228 32.5705 72.9173L32.5313 72.6019C32.5313 72.6019 27.9848 35.7882 27.0667 28.5575C26.1485 21.3267 24.273 14.2658 26.0847 13.5136C27.8964 12.7614 29.8309 17.7453 31.0534 21.4334L31.3873 22.5448" fill="white"/>
<path d="M35.4477 27.4316C35.4477 27.4316 34.7504 12.1306 36.621 9.56827C38.4917 7.00597 40.1512 11.0969 40.1463 13.8291C40.1414 16.5612 40.7404 27.417 40.7404 27.417C40.7404 27.417 45.6502 21.9236 51.5763 23.855C57.5024 25.7864 60.6004 30.9887 58.2584 32.7406C55.9164 34.4925 53.2358 29.2562 49.254 29.3824C45.0905 29.5134 42.6012 32.7552 44.5651 36.8655C46.529 40.9759 51.6254 38.729 53.2898 36.8655C54.9542 35.002 55.8919 33.4103 57.7625 33.7063C59.6331 34.0023 59.0342 38.0738 56.8494 41.1311C54.9198 43.839 48.5028 48.556 48.5028 48.556L51.9396 68.1421C49.4982 71.2512 45.9566 73.3318 42.0267 73.9655C37.6079 74.6109 34.3969 73.7228 32.5705 72.9172L32.5313 72.6019C32.5313 72.6019 27.9848 35.7882 27.0667 28.5575C26.1485 21.3267 24.273 14.2658 26.0847 13.5136C27.8964 12.7614 29.8309 17.7453 31.0534 21.4334L31.3873 22.5448" stroke="#3A3A3A" stroke-width="1.44099" stroke-miterlimit="10"/>
<path d="M30.625 58.097L49.6503 55.3066L51.8941 68.1861C51.8941 68.1861 47.6718 73.4854 41.9813 74.0095C36.2909 74.5336 32.5251 72.9613 32.5251 72.9613L30.625 58.097Z" fill="#3A3A3A"/>
</svg>
