<svg width="81" height="81" viewBox="0 0 81 81" fill="none" xmlns="http://www.w3.org/2000/svg">
<path d="M27.5412 44.2599L12.5801 52.4097C11.4173 53.0431 10.9881 54.4993 11.6215 55.6621L18.5449 68.3718C19.1783 69.5347 20.6345 69.9638 21.7973 69.3304L36.7584 61.1805C37.9213 60.5471 38.3504 59.091 37.717 57.9282L30.7936 45.2184C30.1602 44.0556 28.704 43.6265 27.5412 44.2599Z" fill="white" stroke="#3A3A3A" stroke-width="1.28409" stroke-miterlimit="10"/>
<path d="M20.8414 53.8496L28.3827 53.8739C28.4592 53.8743 28.5344 53.8949 28.6005 53.9334C28.6666 53.972 28.7214 54.0272 28.7595 54.0935C28.7976 54.1599 28.8177 54.2352 28.8176 54.3117C28.8176 54.3883 28.7973 54.4635 28.7591 54.5298L24.6872 60.8802C24.646 60.9441 24.5888 60.9961 24.5213 61.0312C24.4539 61.0662 24.3784 61.0831 24.3025 61.0801C24.2265 61.0771 24.1526 61.0543 24.0881 61.0141C24.0236 60.9738 23.9706 60.9175 23.9346 60.8506L20.4634 54.4798C20.4312 54.4143 20.4159 54.3416 20.419 54.2686C20.422 54.1956 20.4433 54.1245 20.4809 54.0618C20.5184 53.9992 20.5712 53.947 20.6342 53.9099C20.6971 53.8728 20.7684 53.8521 20.8414 53.8496Z" fill="#1DBF73"/>
<path d="M46.2119 17.0959L29.1749 17.0632C27.8508 17.0607 26.7753 18.1321 26.7727 19.4562L26.745 33.9293C26.7424 35.2534 27.8138 36.3289 29.1379 36.3314L46.1749 36.3641C47.499 36.3667 48.5745 35.2953 48.5771 33.9712L48.6048 19.4981C48.6074 18.174 47.536 17.0984 46.2119 17.0959Z" fill="white" stroke="#3A3A3A" stroke-width="1.28409" stroke-miterlimit="10"/>
<path d="M26.7363 28.7409C27.6595 27.2621 30.1796 24.0507 33.6185 25.0569C37.0573 26.0632 36.1955 30.4953 39.4462 31.0203C42.5307 31.5147 44.3858 25.8926 48.5728 25.3326" stroke="#3A3A3A" stroke-width="1.28409" stroke-miterlimit="10"/>
<path d="M41.1226 25.38C42.5797 25.38 43.7608 24.1988 43.7608 22.7417C43.7608 21.2847 42.5797 20.1035 41.1226 20.1035C39.6655 20.1035 38.4844 21.2847 38.4844 22.7417C38.4844 24.1988 39.6655 25.38 41.1226 25.38Z" fill="#1DBF73"/>
<path d="M26.75 33.3379L48.7746 33.3802L48.7721 34.6927C48.7716 34.9145 48.7275 35.134 48.6422 35.3388C48.557 35.5435 48.4322 35.7294 48.2751 35.8859C48.118 36.0424 47.9316 36.1665 47.7265 36.251C47.5215 36.3355 47.3017 36.3787 47.08 36.3783L28.4331 36.3425C27.9852 36.3416 27.556 36.1629 27.2398 35.8455C26.9237 35.5282 26.7466 35.0983 26.7475 34.6504L26.75 33.3379Z" fill="#3A3A3A"/>
<path d="M67.8985 45.9484L52.0095 39.8007C50.7745 39.3229 49.3861 39.9367 48.9083 41.1716L43.6858 54.6696C43.2079 55.9045 43.8217 57.293 45.0567 57.7708L60.9457 63.9185C62.1806 64.3963 63.5691 63.7825 64.0469 62.5476L69.2694 49.0496C69.7472 47.8147 69.1335 46.4262 67.8985 45.9484Z" fill="white" stroke="#3A3A3A" stroke-width="1.28409" stroke-miterlimit="10"/>
<path d="M48.584 41.8008L68.9568 49.6428" stroke="#3A3A3A" stroke-width="1.28409" stroke-miterlimit="10"/>
<path d="M55.6135 47.9232L51.076 46.1676C50.8507 46.0804 50.5973 46.1925 50.5101 46.4178L47.3684 54.5378C47.2812 54.7632 47.3932 55.0165 47.6185 55.1037L52.156 56.8593C52.3813 56.9465 52.6347 56.8345 52.7219 56.6092L55.8636 48.4892C55.9508 48.2638 55.8388 48.0104 55.6135 47.9232Z" fill="#1DBF73"/>
<path d="M57.9434 49.3359L64.7607 51.9588" stroke="#3A3A3A" stroke-width="1.28409" stroke-miterlimit="10"/>
<path d="M56.9355 51.9551L63.7529 54.5779" stroke="#3A3A3A" stroke-width="1.28409" stroke-miterlimit="10"/>
<path d="M55.9277 54.5801L62.7451 57.2029" stroke="#3A3A3A" stroke-width="1.28409" stroke-miterlimit="10"/>
<path d="M54.9199 57.1992L61.7373 59.8221" stroke="#3A3A3A" stroke-width="1.28409" stroke-miterlimit="10"/>
<path d="M15.0371 31.873L21.6416 38.4674" stroke="#3A3A3A" stroke-width="1.28409" stroke-miterlimit="10"/>
<path d="M11.0117 40.6094L19.7811 41.7217" stroke="#3A3A3A" stroke-width="1.28409" stroke-miterlimit="10"/>
<path d="M59.6941 20.6758L54.7852 29.1767" stroke="#3A3A3A" stroke-width="1.28409" stroke-miterlimit="10"/>
<path d="M67.3763 30.3477L58.0703 32.5834" stroke="#3A3A3A" stroke-width="1.28409" stroke-miterlimit="10"/>
</svg>
