<svg width="20" height="21" viewBox="0 0 20 21" fill="none" xmlns="http://www.w3.org/2000/svg">
<path d="M15.1814 6.56504C15.8442 6.56504 16.3814 6.02778 16.3814 5.36504C16.3814 4.7023 15.8442 4.16504 15.1814 4.16504C14.5187 4.16504 13.9814 4.7023 13.9814 5.36504C13.9814 6.02778 14.5187 6.56504 15.1814 6.56504Z" fill="#74767E"/>
<path d="M10 15.5C7.2425 15.5 5 13.2575 5 10.5C5 7.7425 7.2425 5.5 10 5.5C12.7575 5.5 15 7.7425 15 10.5C15 13.2575 12.7575 15.5 10 15.5ZM10 8C8.62125 8 7.5 9.12125 7.5 10.5C7.5 11.8787 8.62125 13 10 13C11.3787 13 12.5 11.8787 12.5 10.5C12.5 9.12125 11.3787 8 10 8Z" fill="#74767E"/>
<path d="M15 20.5H5C2.43 20.5 0 18.07 0 15.5V5.5C0 2.93 2.43 0.5 5 0.5H15C17.57 0.5 20 2.93 20 5.5V15.5C20 18.07 17.57 20.5 15 20.5ZM5 3C3.83125 3 2.5 4.33125 2.5 5.5V15.5C2.5 16.6912 3.80875 18 5 18H15C16.1688 18 17.5 16.6688 17.5 15.5V5.5C17.5 4.33125 16.1688 3 15 3H5Z" fill="#74767E"/>
</svg>
