<svg xmlns="http://www.w3.org/2000/svg" width="178" height="71" viewBox="0 0 178 71">
<g clip-path="url(#clip0_3145_22965)">
<path d="M46.6046 35.621C47.2674 34.1104 46.3587 33.5241 44.2055 33.5241H40.6068C39.8211 33.5241 39.6562 33.4589 39.8301 33.0681L40.091 32.4849C40.25 32.1096 40.4809 32.0352 41.2666 32.0352H45.9779C46.6329 32.0045 47.2867 32.1209 47.8941 32.3764L48.362 30.3136H38.9334C37.1341 30.3136 35.7366 31.1542 35.0349 32.7951L34.0093 35.1247C33.2265 36.8555 33.7903 37.3705 35.8086 37.3705H39.9501C40.7448 37.3705 40.8737 37.4542 40.7058 37.8296L40.4059 38.543C40.241 38.9276 40.037 38.9928 39.2483 38.9928H34.3271C33.6972 39.0284 33.0691 38.8949 32.5038 38.605L32 40.7081H41.1736C43.6147 40.7081 44.7573 39.7776 45.477 38.1646L46.6046 35.621Z"></path>
<path d="M71.2173 36.1791C71.9525 36.1581 72.6865 36.2522 73.3945 36.4583L74.4021 34.1908C73.6087 34.374 72.798 34.4645 71.985 34.4607H68.3564L69.439 32.0319H73.5714C74.3134 32.009 75.0545 32.102 75.7696 32.3079L76.2405 30.3134H64.6977C64.7757 30.726 64.7577 31.1106 64.3259 32.097L61.312 38.9212C61.1177 39.3853 60.8656 39.8212 60.5622 40.2178C60.2839 39.697 60.0549 39.1495 59.8785 38.5831L58.2441 33.375L61.6089 31.3339C62.3015 30.903 63.0415 30.5593 63.813 30.3103H59.1648C59.1324 30.4433 59.0913 30.5739 59.0418 30.7011C58.8889 31.0486 58.6399 31.2998 57.8422 31.8271L52.963 34.9725L54.2346 32.0908C54.4957 31.4092 54.9064 30.7997 55.4341 30.3103H49.5233C49.6043 30.7198 49.5953 31.1013 49.1574 32.0877L46.1585 38.9119C45.893 39.5937 45.4831 40.2053 44.959 40.7017H50.8698C50.8068 40.2799 50.8098 39.8952 51.2417 38.9088L51.9344 37.3579L53.6078 36.3001L54.6424 40.7048H71.8651L73.2116 38.7041C72.4254 38.8951 71.62 38.9878 70.8125 38.9802H66.3621L67.6036 36.1884L71.2173 36.1791Z"></path>
<path d="M86.433 38.1737C85.2398 38.4332 84.0236 38.5632 82.8043 38.5614C82.8043 38.5614 80.8311 38.5614 80.4232 38.5614C79.9074 38.5614 79.7515 38.4125 79.9464 37.9007C80.1413 37.3889 82.1056 33.0245 82.1056 33.0245C82.1883 32.8393 82.3228 32.6841 82.4918 32.579C82.6608 32.4739 82.8564 32.4238 83.0532 32.4351H86.7899C87.39 32.4396 87.9854 32.5444 88.5532 32.7453L89.153 30.3568H89.132L89.147 30.2948H81.14C78.9628 30.2948 77.4003 31.1044 76.4077 33.3502L74.5184 37.6308C73.5377 39.8735 74.3804 40.7079 76.5366 40.7079H84.7536L86.433 38.1737Z"></path>
<path d="M100.983 38.9024L104 32.0782C104.263 31.3978 104.673 30.7888 105.199 30.2977H99.2824C99.3544 30.7072 99.3514 31.0887 98.9106 32.0751L97.8669 34.4512H94.0673L95.129 32.0844C95.3884 31.4019 95.7993 30.792 96.3285 30.3039H90.4117C90.4837 30.7103 90.4777 31.0918 90.0308 32.0813L87.0319 38.9056C86.7637 39.5898 86.3483 40.2018 85.8174 40.6954H91.7402C91.6712 40.2797 91.6742 39.892 92.1211 38.9087L93.3206 36.179H97.1052L95.9057 38.9087C95.6398 39.5903 95.23 40.2018 94.7061 40.6985H100.617C100.527 40.2766 100.545 39.8858 100.983 38.9024Z"></path>
<path d="M111.66 38.9646H107.249L108.478 36.1728H112.104C112.836 36.1502 113.567 36.2433 114.272 36.4489L115.28 34.1814C114.493 34.3664 113.688 34.458 112.881 34.4544H109.225L110.305 32.0225H114.446C115.187 31.9973 115.927 32.0894 116.641 32.2954L117.106 30.3009H105.581C105.647 30.7104 105.641 31.0919 105.2 32.0814L102.202 38.9056C101.933 39.5851 101.524 40.1951 101.002 40.6923H112.746L114.092 38.6885C113.296 38.8846 112.479 38.9773 111.66 38.9646Z"></path>
<path d="M128.081 36.1666C129.197 36.1107 130.18 36.027 130.867 34.5008L131.707 32.59C132.478 30.8468 131.596 30.2977 129.266 30.2977H118.308C118.503 30.7103 118.497 31.0918 118.056 32.0813L115.057 38.9056C114.796 39.5888 114.385 40.2003 113.857 40.6923H119.777C119.708 40.2766 119.711 39.8889 120.149 38.9056L121.349 36.1759H122.917L123.319 40.6861H129.017C128.744 40.2921 128.738 39.7555 128.621 39.0917L128.081 36.1666ZM126.618 32.5993L126.063 33.8835C125.841 34.3861 125.619 34.4667 124.962 34.4667H122.089L123.181 32.0348H126.039C126.693 32.0224 126.849 32.0937 126.618 32.5993Z"></path>
<path d="M137.519 32.4691C137.69 32.0907 137.912 32.0162 138.719 32.0131H143.442C144.096 31.9821 144.749 32.0986 145.355 32.3543L146.012 30.2885H136.377C134.577 30.2885 133.195 31.1322 132.478 32.77L131.467 35.0902C130.688 36.8242 131.251 37.3391 133.267 37.3391H137.414C138.203 37.3391 138.344 37.4198 138.17 37.7982L137.855 38.5085C137.69 38.8963 137.492 38.9614 136.685 38.9614H131.773C131.142 38.9934 130.514 38.8589 129.947 38.5706L129.455 40.6861H138.614C141.058 40.6861 142.212 39.7555 142.926 38.1394L144.051 35.602C144.719 34.0914 143.811 33.5082 141.652 33.5082H138.053C137.258 33.5082 137.099 33.4462 137.276 33.0523L137.519 32.4691Z"></path>
<path d="M143.14 39.132C143.29 39.1314 143.435 39.1766 143.56 39.2619C143.684 39.3472 143.781 39.4688 143.838 39.6112C143.896 39.7536 143.911 39.9104 143.882 40.0617C143.853 40.213 143.781 40.352 143.676 40.4611C143.57 40.5702 143.436 40.6444 143.289 40.6743C143.143 40.7043 142.992 40.6886 142.854 40.6293C142.716 40.57 142.599 40.4697 142.516 40.3412C142.434 40.2127 142.39 40.0617 142.391 39.9075C142.39 39.8054 142.409 39.7042 142.446 39.6097C142.483 39.5153 142.539 39.4294 142.608 39.3573C142.678 39.2851 142.761 39.228 142.853 39.1893C142.944 39.1507 143.042 39.1312 143.14 39.132ZM143.14 39.2871C143.021 39.2828 142.903 39.3154 142.802 39.3809C142.7 39.4464 142.62 39.5417 142.572 39.6546C142.523 39.7675 142.508 39.8929 142.529 40.0146C142.549 40.1364 142.605 40.2489 142.688 40.3379C142.771 40.4268 142.878 40.4881 142.994 40.5139C143.111 40.5396 143.233 40.5286 143.344 40.4824C143.455 40.4361 143.55 40.3567 143.616 40.2543C143.683 40.1518 143.719 40.0311 143.719 39.9075C143.719 39.7471 143.659 39.593 143.552 39.4773C143.445 39.3617 143.298 39.2935 143.143 39.2871H143.14ZM143.014 40.3572H142.837V39.498C142.928 39.4781 143.021 39.4677 143.113 39.467C143.218 39.4549 143.323 39.4789 143.413 39.5352C143.438 39.5583 143.458 39.5872 143.471 39.6195C143.483 39.6518 143.488 39.6867 143.485 39.7213C143.485 39.7684 143.469 39.814 143.44 39.8503C143.411 39.8866 143.371 39.9112 143.326 39.9199V39.9199C143.398 39.9199 143.446 40.0005 143.458 40.1277C143.462 40.2013 143.479 40.2737 143.506 40.3417H143.323C143.295 40.2706 143.278 40.1952 143.272 40.1184C143.271 40.0989 143.266 40.0798 143.258 40.0624C143.249 40.045 143.237 40.0297 143.222 40.0174C143.208 40.0051 143.191 39.9961 143.172 39.9911C143.154 39.9861 143.135 39.985 143.116 39.9881H143.035L143.014 40.3572ZM143.014 39.8609H143.098C143.2 39.8609 143.281 39.8268 143.281 39.7369C143.281 39.6469 143.23 39.6097 143.11 39.6097H143.014V39.8609Z"></path>
</g>
<defs>
<clipPath id="clip0_3145_22965">
<rect width="114" height="10.4162" transform="translate(32 30.2919)"></rect>
</clipPath>
</defs>
</svg>