<svg xmlns="http://www.w3.org/2000/svg" width="178" height="71" viewBox="0 0 178 71">
<path d="M63.8088 26.1168C64.5992 26.2781 65.4128 26.3649 66.1753 26.613C69.687 27.7553 72.0087 30.0829 72.7298 33.8034C73.5417 37.9966 71.6068 41.8987 67.7744 43.6831C63.8814 45.4959 60.0044 45.3103 56.4847 42.7589C50.9239 38.7279 51.8747 30.0837 58.1213 27.1537C59.2387 26.63 60.4064 26.2992 61.6338 26.1865C61.7232 26.1784 61.8093 26.1403 61.897 26.116C62.5343 26.1168 63.1716 26.1168 63.8088 26.1168ZM55.2197 35.5173C55.3066 36.1002 55.3465 36.6953 55.4885 37.2637C56.6131 41.7714 61.582 44.1955 65.8411 42.33C69.7237 40.6291 71.48 36.491 69.9382 32.6749C68.6462 29.4757 65.5396 27.6677 61.9832 28.0431C58.2027 28.4436 55.2867 31.6882 55.2197 35.5173Z"></path>
<path d="M139.999 43.5532C135.579 43.5532 131.159 43.5532 126.715 43.5532C126.715 38.5801 126.715 33.6362 126.715 28.6631C127.374 28.6631 128.031 28.6631 128.735 28.6631C128.735 33.0655 128.735 37.4694 128.735 41.9382C132.52 41.9382 136.26 41.9382 140 41.9382C139.999 42.4774 139.999 43.0149 139.999 43.5532Z"></path>
<path d="M86.3248 37.3626C87.8258 39.43 89.3021 41.4625 90.8183 43.5518C89.9506 43.5518 89.1227 43.5623 88.2956 43.5388C88.1895 43.5356 88.0675 43.3766 87.9877 43.264C86.635 41.3668 85.2911 39.464 83.9328 37.5717C83.8395 37.4412 83.6481 37.305 83.5014 37.3042C81.6422 37.2864 79.7822 37.2928 77.9231 37.2945C77.8712 37.2945 77.8202 37.3082 77.7157 37.3236C77.7157 39.3854 77.7157 41.4471 77.7157 43.5307C76.9915 43.5307 76.3207 43.5307 75.6221 43.5307C75.6221 38.5819 75.6221 33.638 75.6221 28.6341C75.7616 28.6341 75.9028 28.6341 76.0432 28.6341C78.8985 28.6341 81.7547 28.6082 84.61 28.6503C85.449 28.6625 86.3168 28.7622 87.116 29.0071C88.8611 29.5413 89.9322 31.0672 90.0248 32.9375C90.1045 34.5444 89.1059 36.1229 87.5196 36.8745C87.1622 37.0431 86.7866 37.1753 86.3248 37.3626ZM77.7237 35.5149C77.8433 35.5254 77.9335 35.54 78.0236 35.54C80.2544 35.5408 82.4852 35.5522 84.7161 35.5303C85.1739 35.5262 85.6421 35.4403 86.0863 35.3219C87.0793 35.0568 87.7245 34.2055 87.7971 33.1394C87.8721 32.053 87.3808 31.1328 86.4093 30.7437C85.9148 30.5458 85.3581 30.4259 84.8277 30.4177C82.5706 30.3821 80.3126 30.4015 78.0555 30.4015C77.9526 30.4015 77.8489 30.4145 77.7221 30.4234C77.7237 32.1179 77.7237 33.7929 77.7237 35.5149Z"></path>
<path d="M125.551 43.5534C124.735 43.5534 124.005 43.5664 123.277 43.5405C123.151 43.5364 122.981 43.3929 122.917 43.268C122.359 42.1849 121.812 41.0953 121.28 39.9983C121.164 39.7583 121.03 39.6765 120.765 39.6773C118.004 39.6878 115.242 39.6886 112.481 39.6757C112.206 39.674 112.087 39.7802 111.976 40.0081C111.444 41.105 110.901 42.1962 110.35 43.2835C110.295 43.3937 110.161 43.5364 110.059 43.5396C109.294 43.5607 108.527 43.551 107.714 43.551C107.793 43.3783 107.848 43.2453 107.912 43.1181C110.267 38.4255 112.627 33.7345 114.972 29.0363C115.125 28.7282 115.292 28.6074 115.636 28.6236C116.299 28.6544 116.964 28.6512 117.627 28.6244C117.95 28.6115 118.113 28.7217 118.26 29.016C120.354 33.2108 122.462 37.3983 124.566 41.5874C124.882 42.2198 125.198 42.8505 125.551 43.5534ZM116.614 30.7007C115.425 33.1022 114.27 35.4355 113.097 37.8036C115.486 37.8036 117.802 37.8036 120.173 37.8036C118.987 35.4371 117.819 33.1062 116.614 30.7007Z"></path>
<path d="M103.91 35.0653C103.91 35.6475 103.91 36.1534 103.91 36.6974C101.198 36.6974 98.5086 36.6974 95.7841 36.6974C95.7841 38.4469 95.7841 40.1592 95.7841 41.9145C99.3803 41.9145 102.985 41.9145 106.621 41.9145C106.621 42.4723 106.621 42.9879 106.621 43.5287C102.253 43.5287 97.8921 43.5287 93.5054 43.5287C93.5054 38.5807 93.5054 33.6384 93.5054 28.6653C97.8761 28.6653 102.235 28.6653 106.623 28.6653C106.623 29.1867 106.623 29.7023 106.623 30.2536C103.007 30.2536 99.413 30.2536 95.7841 30.2536C95.7841 31.8645 95.7841 33.4414 95.7841 35.0645C98.4831 35.0653 101.184 35.0653 103.91 35.0653Z"></path>
<path d="M38 43.5252C38 38.5659 38 33.6333 38 28.6675C38.674 28.6675 39.3407 28.6675 40.0514 28.6675C40.0514 33.0837 40.0514 37.486 40.0514 41.9183C43.808 41.9183 47.5215 41.9183 51.2653 41.9183C51.2653 42.4631 51.2653 42.9796 51.2653 43.5252C46.8635 43.5252 42.4513 43.5252 38 43.5252Z"></path>
<path d="M51.8053 28.634C51.2813 29.6337 50.7988 30.5579 50.3138 31.4813C49.9342 32.2045 49.5633 32.9334 49.1621 33.6444C49.0888 33.7741 48.8957 33.8933 48.7474 33.9079C48.3669 33.9452 47.9801 33.92 47.5391 33.92C47.5813 33.7757 47.6045 33.6655 47.6451 33.5617C48.2465 32.027 48.8551 30.4955 49.4469 28.9559C49.5378 28.72 49.6439 28.6194 49.9023 28.6275C50.51 28.647 51.1186 28.634 51.8053 28.634Z"></path>
<path d="M103.904 26.3124C102.165 26.9431 100.427 27.5731 98.688 28.2038C98.6729 28.1844 98.6577 28.1657 98.6426 28.1462C99.1825 27.5317 99.7201 26.9147 100.268 26.3075C100.32 26.2499 100.436 26.2297 100.522 26.2288C101.646 26.224 102.77 26.2256 103.895 26.2256C103.898 26.254 103.901 26.2832 103.904 26.3124Z"></path>
</svg>