<svg xmlns="http://www.w3.org/2000/svg" width="178" height="71" viewBox="0 0 178 71">
<path d="M131.915 24.8194C131.872 24.893 131.819 24.9772 131.788 25.0508C130.324 28.5325 128.861 32.0247 127.398 35.5064C127.334 35.6537 127.323 35.7799 127.387 35.9272C128.861 39.7875 130.335 43.6479 131.809 47.5083C131.841 47.5819 131.862 47.6556 131.904 47.7607C131.523 47.7081 131.183 47.6661 130.844 47.6135C129.911 47.4662 128.988 47.3084 128.055 47.1612C127.896 47.1401 127.832 47.056 127.779 46.9192C126.984 44.8681 126.178 42.8169 125.372 40.7553C125.34 40.6711 125.309 40.587 125.256 40.4713C125.203 40.587 125.171 40.6501 125.139 40.7237C124.322 42.6066 123.506 44.4789 122.7 46.3617C122.626 46.5406 122.541 46.5721 122.35 46.5511C121.459 46.4354 120.569 46.3302 119.667 46.225C119.36 46.1934 119.063 46.1514 118.724 46.1093C118.808 45.92 118.872 45.7517 118.946 45.5834C120.388 42.3226 121.831 39.0617 123.283 35.8009C123.358 35.6432 123.358 35.5169 123.294 35.3592C121.937 31.93 120.59 28.4904 119.254 25.0403C119.222 24.9666 119.201 24.8825 119.158 24.7878C119.243 24.7878 119.307 24.7773 119.37 24.7773C120.526 24.7773 121.672 24.7773 122.827 24.7773C122.986 24.7773 123.05 24.8299 123.103 24.9666C123.835 26.839 124.566 28.7008 125.298 30.5731C125.33 30.6468 125.362 30.7099 125.404 30.8256C125.457 30.7204 125.489 30.6468 125.521 30.5731C126.305 28.7113 127.09 26.8495 127.864 24.9772C127.928 24.8194 128.002 24.7668 128.172 24.7668C129.412 24.7668 130.664 24.7668 131.904 24.7668C131.915 24.7878 131.915 24.8089 131.915 24.8194Z"></path>
<path d="M49.7453 34.8332C49.7453 38.9776 49.7453 43.122 49.7453 47.2664C48.5152 47.4347 47.3064 47.5924 46.0869 47.7607C46.0869 40.1136 46.0869 32.4665 46.0869 24.7878C46.1505 24.7878 46.2248 24.7878 46.299 24.7878C47.2958 24.7878 48.2925 24.7878 49.2787 24.7878C49.4484 24.7878 49.512 24.8404 49.565 24.9876C51.0708 29.1531 52.5765 33.329 54.0823 37.505C54.1141 37.5891 54.1459 37.6733 54.2095 37.7469C54.2095 33.4342 54.2095 29.132 54.2095 24.7983C55.429 24.7983 56.6272 24.7983 57.8361 24.7983C57.8361 31.9511 57.8361 39.1143 57.8361 46.2986C57.5286 46.3407 57.221 46.4038 56.9029 46.4354C55.991 46.5406 55.0896 46.6352 54.1777 46.7404C53.9762 46.7615 53.8808 46.7194 53.8172 46.5195C52.5129 42.7117 51.198 38.904 49.8937 35.0962C49.8619 35.0015 49.8301 34.9173 49.7983 34.8227C49.7771 34.8332 49.7665 34.8332 49.7453 34.8332Z"></path>
<path d="M69.8174 36.7373C69.1706 36.7373 68.545 36.7268 67.9087 36.7373C66.9968 36.7478 66.0955 36.7689 65.1835 36.7794C65.0457 36.7794 64.9715 36.8004 64.9715 36.9687C64.9715 38.6517 64.9715 40.3347 64.9715 42.0177C64.9715 42.0598 64.9821 42.1019 64.9821 42.165C67.1134 42.0283 69.2236 41.902 71.3656 41.7653C71.3762 41.8705 71.3868 41.9546 71.3868 42.0283C71.3868 43.017 71.3868 44.0058 71.3974 44.984C71.3974 45.1839 71.3232 45.2365 71.1429 45.247C69.8068 45.3417 68.4601 45.4469 67.1241 45.552C65.5759 45.6783 64.0277 45.794 62.4902 45.9202C62.1296 45.9518 61.7691 45.9728 61.3979 45.9938C61.3979 38.9252 61.3979 31.8671 61.3979 24.7985C64.717 24.7985 68.036 24.7985 71.3868 24.7985C71.3868 24.8722 71.3974 24.9458 71.3974 25.0194C71.3974 26.0503 71.3974 27.0811 71.3974 28.1014C71.3974 28.3013 71.3338 28.3433 71.1429 28.3433C69.1812 28.3328 67.2195 28.3433 65.2578 28.3433C64.9715 28.3433 64.9715 28.3433 64.9715 28.6168C64.9715 30.0579 64.9715 31.499 64.9715 32.94C64.9715 33.0137 64.9715 33.0978 64.9715 33.203C66.5939 33.182 68.195 33.1609 69.8068 33.1294C69.8174 34.3496 69.8174 35.5277 69.8174 36.7373Z"></path>
<path d="M97.3366 24.7984C97.3366 25.987 97.3366 27.1546 97.3366 28.3538C95.1522 28.3538 92.989 28.3538 90.794 28.3538C90.794 29.9 90.794 31.4147 90.794 32.961C92.427 32.961 94.0706 32.961 95.7142 32.961C95.7248 33.0556 95.7248 33.1187 95.7248 33.1924C95.7248 34.2232 95.7142 35.2646 95.7354 36.2954C95.7354 36.5058 95.6612 36.5373 95.4703 36.5373C94.007 36.5268 92.533 36.5373 91.0697 36.5373C90.9743 36.5373 90.8894 36.5373 90.7728 36.5373C90.7728 39.2617 90.7728 41.965 90.7728 44.6788C89.5852 44.6788 88.4187 44.6788 87.2417 44.6788C87.2417 38.052 87.2417 31.4252 87.2417 24.7879C90.6137 24.7984 93.9646 24.7984 97.3366 24.7984Z"></path>
<path d="M73.7622 28.3539C73.7622 27.1547 73.7622 25.9871 73.7622 24.7985C77.4629 24.7985 81.1531 24.7985 84.8644 24.7985C84.8644 25.9661 84.8644 27.1547 84.8644 28.3539C83.6238 28.3539 82.3831 28.3539 81.1213 28.3539C81.1213 33.8762 81.1213 39.3776 81.1213 44.9104C79.9124 44.9104 78.7248 44.9104 77.516 44.9104C77.516 44.8263 77.516 44.7316 77.516 44.6369C77.516 39.3144 77.516 33.9919 77.516 28.6694C77.516 28.3539 77.516 28.3539 77.1872 28.3539C76.1375 28.3539 75.0877 28.3539 74.0379 28.3539C73.9637 28.3539 73.8788 28.3539 73.7622 28.3539Z"></path>
<path d="M99.6582 24.7985C100.846 24.7985 102.023 24.7985 103.232 24.7985C103.232 30.384 103.232 35.9695 103.232 41.5549C105.3 41.6706 107.346 41.7758 109.393 41.881C109.393 43.0696 109.393 44.2267 109.393 45.3943C106.158 45.2365 102.914 45.0682 99.6582 44.9104C99.6582 38.2415 99.6582 31.5305 99.6582 24.7985Z"></path>
<path d="M116.01 45.9202C114.833 45.8361 113.667 45.7414 112.49 45.6572C112.49 38.7148 112.49 31.7619 112.49 24.7985C113.656 24.7985 114.823 24.7985 116.01 24.7985C116.01 31.8461 116.01 38.8726 116.01 45.9202Z"></path>
</svg>