<svg xmlns="http://www.w3.org/2000/svg" width="178" height="71" viewBox="0 0 178 71">
<g clip-path="url(#clip0_3145_22948)">
<path d="M43.7167 33.0959C42.9706 31.9817 41.8899 31.0513 40.6514 30.5795L40.2838 30.4613C39.8777 30.3424 39.4564 30.2802 39.0324 30.2768C38.5773 30.2773 38.1313 30.4022 37.7452 30.6373C37.359 30.8723 37.0481 31.2082 36.8476 31.6068C36.6472 32.0054 36.5652 32.4508 36.611 32.8925C36.6568 33.3342 36.8285 33.7546 37.1067 34.106L36.9548 33.9166C37.3382 34.4604 37.9646 35.0133 38.8404 35.6641C40.5848 36.9559 41.7164 38.1009 41.811 39.522C41.8348 39.7162 41.847 39.9115 41.8476 40.1071C41.8476 40.8284 41.6835 41.5932 41.404 42.1342C41.404 42.1342 41.2871 42.3271 41.3602 42.4054C41.3882 42.4355 41.4814 42.4613 41.629 42.3754C42.4081 41.8919 43.0808 41.2619 43.6078 40.5223C44.3804 39.4361 44.8034 38.1498 44.8225 36.8279C44.8417 35.506 44.4562 34.2086 43.7153 33.1015L43.7167 33.0959Z"></path>
<path d="M38.5668 37.9498L37.471 37.0872C35.1776 35.4892 33.9908 33.7648 34.643 31.6405C34.7013 31.4474 34.7731 31.2584 34.858 31.075V31.075C34.858 31.075 35.0207 30.7499 34.6673 30.9107C33.9011 31.3069 33.218 31.84 32.6535 32.4821C31.6702 33.5952 31.0929 34.9947 31.0118 36.4619C30.9308 37.929 31.3506 39.381 32.2055 40.5907C32.5528 41.0576 32.9756 41.4663 33.4576 41.8007V41.8007C35.8714 43.4993 37.944 42.6059 37.944 42.6059C38.3974 42.4261 38.7937 42.1323 39.0926 41.7543C39.3915 41.3764 39.5823 40.9279 39.6456 40.4546C39.7088 39.9813 39.6422 39.5001 39.4526 39.06C39.263 38.62 38.9571 38.2369 38.5661 37.9498H38.5668Z"></path>
<path d="M81.856 41.5234V32.0546H84.5077V41.5234H81.856Z"></path>
<path d="M63.8877 41.5234V32.0545H66.242L66.457 33.3337C66.7689 32.8764 67.1928 32.5023 67.6904 32.2453C68.2122 31.9657 68.8123 31.8259 69.4908 31.8259C70.991 31.8259 72.0541 32.3924 72.68 33.5252C73.0342 33.0018 73.5191 32.5748 74.089 32.2845C74.693 31.978 75.3648 31.8206 76.0456 31.8259C77.3112 31.8259 78.2833 32.195 78.9618 32.9332C79.6402 33.6713 79.9795 34.7532 79.9795 36.1787V41.5241H77.3994V36.6184C77.3994 35.8043 77.2362 35.1805 76.9099 34.7471C76.5967 34.3144 76.1796 34.0984 75.5138 34.0984C74.8358 34.0984 74.288 34.3403 73.8704 34.824C73.4653 35.3068 73.2629 35.9814 73.2634 36.8477V41.5248H70.6833V36.6883C70.6833 35.8742 70.5204 35.2504 70.1945 34.817C69.8684 34.3843 69.4377 34.1683 68.7612 34.1683C68.0961 34.1683 67.5547 34.4102 67.1372 34.8939C66.7329 35.3767 66.5308 36.0513 66.5308 36.9176V41.5248L63.8877 41.5234Z"></path>
<path d="M89.0687 28.2374H86.4922V41.5229H89.0687V28.2374Z"></path>
<path d="M95.3505 41.7527C94.4374 41.7527 93.6221 41.5363 92.9045 41.1034C92.1855 40.6694 91.598 40.0566 91.2023 39.3279C90.7852 38.5771 90.5767 37.7245 90.5767 36.7702C90.5767 35.8158 90.7855 34.9693 91.203 34.2306C91.5959 33.5051 92.1845 32.8979 92.9052 32.4747C93.6219 32.0422 94.4372 31.8258 95.3512 31.8253C96.0822 31.8253 96.7215 31.9591 97.2691 32.2266C97.8049 32.4837 98.2634 32.8716 98.6 33.3527V32.0546H101.176V41.5235H98.873L98.5992 40.1681C98.2587 40.6124 97.8333 40.9884 97.3465 41.2753C96.8376 41.5936 96.1723 41.7527 95.3505 41.7527ZM95.9238 39.4928C96.6979 39.4928 97.3283 39.243 97.8152 38.7435C98.3149 38.2309 98.5646 37.5785 98.5641 36.7862C98.5636 35.994 98.314 35.3495 97.8152 34.8528C97.3288 34.3401 96.6983 34.0838 95.9238 34.0838C95.1627 34.0838 94.5323 34.3336 94.0325 34.8332C93.5327 35.3327 93.2831 35.9782 93.2836 36.7695C93.2836 37.5617 93.5332 38.2141 94.0325 38.7267C94.5318 39.2393 95.163 39.4947 95.926 39.4928H95.9238Z"></path>
<path d="M102.97 41.5234V32.0546H105.272L105.508 33.8301C105.846 33.2332 106.338 32.733 106.936 32.3789C107.334 32.1426 107.872 32.0546 108.384 32.0546L109.088 34.5424H108.384C107.883 34.5342 107.385 34.6184 106.916 34.7905C106.486 34.9556 106.127 35.2587 105.898 35.6496C105.664 36.0569 105.547 36.6233 105.546 37.3489V41.5234H102.97Z"></path>
<path d="M112.655 41.5234L109.817 32.0546H112.374L114.057 38.8001L115.942 32.0546H118.864L120.749 38.8001L122.452 32.0546H125.009L122.152 41.5234H119.477L117.404 34.5808L115.329 41.5234H112.655Z"></path>
<path d="M142.226 41.7525C141.495 41.7525 140.856 41.6188 140.308 41.3513C139.772 41.0946 139.314 40.7065 138.978 40.2252L138.703 41.5232H136.473V28.2377H138.978V33.4105C139.314 32.9692 139.732 32.5936 140.211 32.3032C140.732 31.9849 141.404 31.8258 142.226 31.8258C143.139 31.8258 143.954 32.0422 144.672 32.4752C145.391 32.9091 145.979 33.5219 146.374 34.2507C146.791 35.0014 147 35.854 147.001 36.8084C147.001 37.7628 146.792 38.6156 146.374 39.3668C145.974 40.0875 145.387 40.6932 144.672 41.1234C143.954 41.5423 143.139 41.752 142.226 41.7525ZM141.663 39.5045C142.427 39.5045 143.06 39.2538 143.562 38.7523C144.064 38.2509 144.314 37.6025 144.314 36.807C144.314 36.0124 144.064 35.3579 143.562 34.8434C143.06 34.329 142.427 34.0727 141.663 34.0745C140.885 34.0745 140.246 34.3308 139.744 34.8434C139.255 35.3453 139.01 35.9938 139.01 36.7888C139.01 37.5838 139.254 38.2383 139.742 38.7523C140.245 39.2542 140.885 39.5049 141.663 39.5045V39.5045Z"></path>
<path d="M58.024 38.6453C58.0362 37.9666 57.8699 37.4346 57.5287 37.067C57.1876 36.6993 56.7282 36.4029 56.1513 36.2142C55.5437 36.0004 54.9248 35.8186 54.2972 35.6696C53.7866 35.5565 53.288 35.3968 52.8079 35.1929C52.4496 35.0307 52.279 34.8266 52.2833 34.5687C52.2876 34.3107 52.4059 34.1178 52.6417 33.9535C52.8939 33.7886 53.2537 33.7089 53.7102 33.7166C54.1295 33.7236 54.4706 33.8018 54.7236 33.9493L54.8182 34.0046C55.1615 34.2296 55.3801 34.6169 55.4095 34.6714L55.4195 34.7252L55.474 34.7127L57.5753 34.2478L57.6305 34.2352L57.6147 34.1821C57.4371 33.5456 57.0557 32.9811 56.5261 32.5709C55.8517 32.0368 54.9236 31.7558 53.7683 31.7356C52.522 31.7146 51.5308 31.9886 50.8227 32.5513C50.1146 33.114 49.7627 33.8312 49.7477 34.677C49.7398 35.1405 49.8473 35.5417 50.0688 35.8653C50.2966 36.1847 50.5911 36.4534 50.9331 36.6538C51.3141 36.8579 51.7147 37.0251 52.1292 37.1529C52.5592 37.2864 52.9849 37.4025 53.3999 37.4982C53.9157 37.6072 54.4206 37.7606 54.9085 37.9568C55.2533 38.0966 55.4167 38.3482 55.4102 38.732C55.4059 38.9927 55.2762 39.2255 55.0254 39.4247C54.7745 39.624 54.3932 39.7239 53.8615 39.7148C53.3297 39.7057 52.8868 39.575 52.5499 39.3234C52.5241 39.3031 52.4998 39.2807 52.4732 39.257L52.4675 39.2514C52.1529 39.0263 51.849 38.5859 51.7673 38.4028L51.7494 38.3629L51.7064 38.3727L49.4739 38.855L49.4194 38.8669L49.4338 38.9193C49.5454 39.3398 49.7423 39.7341 50.0128 40.079C50.4273 40.5918 50.9649 40.9971 51.5781 41.259C52.2303 41.5386 52.9986 41.6854 53.8622 41.7C54.7007 41.714 55.4389 41.5917 56.0631 41.3351C56.6874 41.0786 57.1754 40.7095 57.5144 40.2419C57.854 39.7761 58.0325 39.2168 58.024 38.6453V38.6453Z"></path>
<path d="M134.566 34.1159C134.17 33.4127 133.58 32.8316 132.864 32.4383C132.133 32.031 131.292 31.8273 130.34 31.8273C129.321 31.8273 128.434 32.0438 127.678 32.4767C126.934 32.8974 126.324 33.5123 125.917 34.2522C125.5 35.0155 125.291 35.8872 125.291 36.8672C125.291 37.8347 125.506 38.6875 125.936 39.4256C126.352 40.15 126.969 40.7455 127.716 41.1438C128.473 41.5507 129.341 41.7543 130.319 41.7548C131.102 41.7548 131.8 41.615 132.413 41.3354C133.016 41.0725 133.551 40.681 133.979 40.1897C134.399 39.7111 134.712 39.152 134.898 38.5484H132.436C132.342 38.7399 131.999 39.3173 131.174 39.62C130.942 39.7138 130.693 39.7584 130.443 39.7507C129.801 39.7642 129.179 39.5393 128.701 39.1216C128.232 38.7022 127.971 38.1231 127.919 37.3845H135.155C135.168 37.2186 135.174 37.0595 135.174 36.9071C135.188 36.7538 135.195 36.6074 135.194 36.4681C135.205 35.6433 134.989 34.8307 134.566 34.1159V34.1159ZM127.86 35.8537C127.988 35.1789 128.282 34.6791 128.743 34.3543C129.202 34.0171 129.763 33.839 130.338 33.8482C130.965 33.8482 131.491 34.0292 131.915 34.3913C132.338 34.7534 132.569 35.2409 132.606 35.8537H127.86Z"></path>
<path d="M83.1781 30.9289C82.9823 30.9356 82.7872 30.9043 82.6039 30.837C82.4206 30.7697 82.2528 30.6677 82.1102 30.5368C81.9764 30.4059 81.8715 30.2497 81.8019 30.0778C81.7322 29.9059 81.6994 29.7219 81.7053 29.5372C81.7053 29.1355 81.8402 28.8093 82.1102 28.5586C82.2523 28.4266 82.4199 28.3234 82.6032 28.255C82.7865 28.1866 82.9819 28.1544 83.1781 28.1601C83.6081 28.1601 83.958 28.292 84.228 28.5558C84.3669 28.6794 84.4766 28.8309 84.5496 28.9998C84.6226 29.1688 84.6571 29.3512 84.6508 29.5344C84.6562 29.7206 84.6213 29.9059 84.5484 30.0781C84.4756 30.2503 84.3664 30.4056 84.228 30.534C83.958 30.7973 83.6081 30.9289 83.1781 30.9289Z"></path>
<path d="M59.2935 41.5234V32.0546H61.9416V41.5234H59.2935Z"></path>
<path d="M60.6189 30.929C60.423 30.9358 60.2276 30.9046 60.044 30.8373C59.8605 30.77 59.6925 30.6679 59.5496 30.5368C59.4159 30.4059 59.3109 30.2497 59.2413 30.0778C59.1717 29.9059 59.1388 29.722 59.1447 29.5372C59.1447 29.1355 59.2797 28.8093 59.5496 28.5586C59.6919 28.4265 59.8597 28.3232 60.0433 28.2548C60.2269 28.1864 60.4225 28.1542 60.6189 28.1602C61.0489 28.1602 61.3989 28.2921 61.6689 28.5558C61.8077 28.6794 61.9175 28.8309 61.9905 28.9999C62.0635 29.1688 62.098 29.3512 62.0917 29.5345C62.0971 29.7207 62.0622 29.9059 61.9893 30.0781C61.9165 30.2503 61.8073 30.4057 61.6689 30.534C61.3989 30.7973 61.0489 30.929 60.6189 30.929Z"></path>
</g>
<defs>
<clipPath id="clip0_3145_22948">
<rect width="116" height="14.6835" transform="translate(31 28.1583)"></rect>
</clipPath>
</defs>
</svg>