<svg xmlns="http://www.w3.org/2000/svg" width="178" height="71" viewBox="0 0 178 71">
<path d="M47.6219 37.8963C47.6543 37.9651 47.6725 38.001 47.6877 38.0389C47.874 38.5149 48.2416 38.675 48.6953 38.4339C49.1541 38.1908 49.551 37.8614 49.8457 37.4172C50.0898 37.05 50.0797 36.655 49.9521 36.2652C49.8832 36.0538 49.946 35.9307 50.0564 35.7625C50.2579 35.4547 50.4392 35.1274 50.5809 34.7868C50.7075 34.4842 50.584 34.1908 50.4392 33.9097C50.3521 33.7404 50.2751 33.5578 50.2397 33.3721C50.0452 32.3688 49.4862 31.6076 48.6771 31.0454C48.428 30.872 48.2781 30.7151 48.1789 30.4247C47.9571 29.7753 47.5034 29.3147 46.832 29.1577C46.5424 29.09 46.2963 29.0121 46.0512 28.8274C45.7109 28.572 45.2907 28.6417 44.9028 28.7299C44.5545 28.8089 44.2193 28.9433 43.8749 29.0367C43.7565 29.0695 43.6248 29.0562 43.4992 29.0593C43.2673 29.0654 43.083 29.1465 42.9372 29.3445C42.8562 29.4542 42.7276 29.5384 42.604 29.603C42.2881 29.7692 42.0126 29.9631 41.9124 30.3375C41.8972 30.394 41.8324 30.4381 41.7878 30.4853C41.5782 30.7038 41.3078 30.8874 41.1701 31.1449C40.9331 31.586 40.6455 31.9861 40.3822 32.4057C40.1918 32.7073 40.0743 33.0654 39.9751 33.4121C39.9295 33.5701 40.0105 33.765 40.0298 33.9425C40.0379 34.0215 40.0571 34.1108 40.0318 34.1805C39.97 34.3478 39.884 34.5057 39.808 34.6668C39.5802 35.149 39.6237 35.3757 40.048 35.7009C40.2333 35.8425 40.2668 35.9307 40.0825 36.1082C39.6571 36.5185 39.7878 37.2757 40.3356 37.5373C40.5949 37.6614 40.7913 37.8143 40.9584 38.0564C41.2754 38.5139 41.9184 38.6709 42.4855 38.4667C42.6982 38.3898 42.8815 38.3282 43.0911 38.5047C43.2805 38.6647 43.4628 38.5119 43.6106 38.3898C43.8668 38.1774 44.1484 38.1128 44.4603 38.2061C44.5241 38.2256 44.6122 38.2975 44.6203 38.3549C44.8076 39.6947 44.8451 41.0366 44.5717 42.3692C44.5109 42.6657 44.3955 42.9571 44.2638 43.231C44.0603 43.6526 43.7656 43.7809 43.3281 43.668C39.5903 42.7068 37.2672 40.3 36.4945 36.5042C35.6064 32.1482 38.0915 27.7205 42.3985 26.2103C43.2876 25.8985 44.2081 25.7354 45.1459 25.7241C49.4265 25.6748 52.8595 28.5391 53.939 32.3924C55.22 36.9669 52.7876 41.7178 48.2852 43.3941C47.869 43.549 47.4295 43.6413 46.9981 43.7491C46.6973 43.824 46.433 43.7091 46.3236 43.4321C46.1434 42.9786 45.9651 42.5098 45.8902 42.0317C45.7069 40.8735 45.7383 39.706 45.877 38.5416C45.8953 38.3877 45.9337 38.2913 46.1029 38.318C46.6558 38.4031 47.15 38.2533 47.6219 37.8963Z"></path>
<path d="M70.369 32.3526C69.9933 33.6842 69.6398 34.9512 69.2763 36.2151C68.8064 37.8483 68.3254 39.4784 67.8575 41.1127C67.7897 41.3517 67.6428 41.4481 67.42 41.4502C66.8884 41.4543 66.3577 41.4512 65.8261 41.4523C65.5982 41.4523 65.5071 41.3127 65.4524 41.1106C65.1152 39.8631 64.7648 38.6208 64.4347 37.3712C64.0083 35.7616 63.5972 34.1489 63.1779 32.5372C63.1678 32.5003 63.1415 32.4675 63.0969 32.3864C63.0787 32.4777 63.0645 32.5208 63.0625 32.5639C63.0068 33.7047 62.9632 34.8455 62.8954 35.9853C62.8042 37.5149 62.6949 39.0445 62.5926 40.5731C62.5804 40.7598 62.5551 40.9465 62.547 41.1332C62.5379 41.3466 62.4204 41.4471 62.227 41.4492C61.5779 41.4553 60.9287 41.4533 60.2786 41.4502C60.074 41.4492 59.9697 41.3517 59.991 41.1291C60.0751 40.2489 60.154 39.3676 60.2361 38.4864C60.309 37.6985 60.3819 36.9106 60.4568 36.1227C60.5358 35.2928 60.6168 34.4628 60.6948 33.6339C60.7687 32.8542 60.8386 32.0745 60.9115 31.2959C60.9946 30.4146 61.0817 29.5344 61.1627 28.6532C61.1839 28.4223 61.3439 28.4141 61.509 28.4141C62.2513 28.4121 62.9936 28.4121 63.7349 28.4121C63.8868 28.4121 64.0387 28.4213 64.1906 28.4152C64.4438 28.4059 64.5643 28.5321 64.6281 28.7763C65.0088 30.2495 65.4089 31.7165 65.7846 33.1907C66.0894 34.3838 66.3679 35.5841 66.6605 36.7803C66.6757 36.8419 66.7071 36.8993 66.7476 37.0009C66.8985 36.3546 67.021 35.7483 67.1811 35.1522C67.7542 33.0184 68.3426 30.8886 68.9198 28.7558C68.9857 28.5116 69.1153 28.407 69.3684 28.41C70.2454 28.4193 71.1224 28.4162 71.9994 28.4121C72.2435 28.4111 72.3559 28.4931 72.3771 28.764C72.5007 30.3244 72.6404 31.8847 72.7782 33.4441C72.9108 34.9358 73.0465 36.4274 73.1832 37.918C73.2804 38.9768 73.3868 40.0355 73.4789 41.0942C73.5073 41.4174 73.4607 41.4523 73.1468 41.4523C72.5392 41.4533 71.9326 41.4481 71.325 41.4553C71.1052 41.4574 70.9806 41.3989 70.9675 41.1455C70.9361 40.5505 70.8794 39.9575 70.8358 39.3625C70.7508 38.1991 70.6627 37.0358 70.5877 35.8724C70.5209 34.8445 70.4713 33.8145 70.4125 32.7855C70.4024 32.6603 70.3862 32.5372 70.369 32.3526Z"></path>
<path d="M129.337 37.5694C129.239 37.5325 129.141 37.4946 129.042 37.4607C127.937 37.0862 127.34 36.2296 127.307 35.0601C127.259 33.3869 128.332 32.2656 129.892 31.8675C131.065 31.568 132.228 31.6767 133.382 31.9937C134.338 32.2563 135.231 32.1404 136.051 31.5526C136.281 31.3884 136.387 31.4182 136.551 31.6603C136.75 31.9557 136.947 32.2543 137.143 32.5518C137.317 32.8154 137.297 32.9498 137.04 33.1263C136.493 33.5028 135.888 33.6269 135.237 33.5387C135.156 33.5274 135.073 33.5254 134.954 33.5161C134.989 33.5972 135.001 33.6526 135.032 33.6926C135.828 34.7431 135.618 36.4748 134.235 37.3294C133.645 37.6926 133.004 37.9111 132.302 37.9275C131.802 37.9398 131.292 37.9336 130.873 38.2896C130.816 38.3389 130.729 38.3676 130.695 38.4291C130.625 38.5543 130.521 38.7102 130.548 38.8251C130.57 38.9144 130.765 39.0108 130.889 39.018C131.36 39.0426 131.835 39.0088 132.304 39.0426C132.882 39.0837 133.47 39.1103 134.027 39.2488C135.084 39.5125 135.799 40.1906 136.016 41.2965C136.24 42.4404 135.92 43.4222 135.016 44.1772C134.419 44.6758 133.704 44.8892 132.957 45.0154C131.608 45.2421 130.267 45.2042 128.967 44.7743C128.044 44.4696 127.312 43.89 127.108 42.8672C127.035 42.5009 127.131 42.0967 127.166 41.712C127.181 41.5458 127.295 41.4812 127.47 41.4843C128.043 41.4945 128.617 41.4945 129.19 41.4843C129.397 41.4802 129.481 41.5417 129.465 41.7623C129.45 41.9562 129.444 42.1593 129.486 42.347C129.615 42.9133 130.06 43.1236 130.56 43.2191C131.237 43.3483 131.919 43.3257 132.584 43.1226C133.227 42.9267 133.595 42.4055 133.549 41.7982C133.515 41.3447 133.257 41.0636 132.85 40.9631C132.421 40.8574 131.975 40.7938 131.534 40.7641C130.845 40.7169 130.152 40.7282 129.464 40.683C129.132 40.6615 128.799 40.5856 128.475 40.4994C127.97 40.365 127.701 39.9916 127.634 39.4889C127.566 38.9759 127.642 38.4784 128.114 38.1747C128.416 37.9808 128.761 37.8587 129.09 37.709C129.169 37.6731 129.257 37.6566 129.341 37.631C129.336 37.6084 129.337 37.5889 129.337 37.5694ZM129.807 34.9237C129.805 35.6982 130.157 36.1506 130.887 36.3014C131.01 36.3271 131.138 36.3404 131.263 36.3404C131.722 36.3384 132.171 36.3004 132.545 35.9783C133.112 35.49 133.132 34.0137 132.125 33.6054C130.948 33.1294 129.81 33.7603 129.807 34.9237Z"></path>
<path d="M89.9158 35.6273C88.6307 35.6273 87.377 35.6273 86.0757 35.6273C86.0757 35.7228 86.0757 35.8202 86.0757 35.9177C86.0757 37.6155 86.0757 39.3144 86.0757 41.0123C86.0757 41.3949 86.019 41.4514 85.6342 41.4524C85.0519 41.4524 84.4706 41.4524 83.8883 41.4524C83.5329 41.4524 83.4843 41.4031 83.4843 41.0369C83.4843 37.1795 83.4843 33.3222 83.4843 29.4648C83.4843 29.2176 83.4904 28.9693 83.4823 28.722C83.4762 28.521 83.5542 28.4174 83.7597 28.4174C84.4342 28.4184 85.1086 28.4174 85.7841 28.4143C86.0433 28.4132 86.0788 28.5764 86.0778 28.7887C86.0747 30.2393 86.0757 31.69 86.0757 33.1406C86.0757 33.4996 86.0757 33.5007 86.4322 33.5007C87.4945 33.5007 88.5578 33.4945 89.6201 33.5058C89.847 33.5078 89.9239 33.4483 89.9219 33.2073C89.9108 31.7484 89.9169 30.2886 89.9169 28.8298C89.9169 28.4512 89.9482 28.4153 90.3158 28.4143C90.9569 28.4112 91.5979 28.4194 92.2389 28.4102C92.4779 28.4071 92.562 28.4963 92.561 28.7415C92.5559 32.8636 92.5569 36.9856 92.5569 41.1077C92.5569 41.3929 92.4982 41.4524 92.2167 41.4534C91.5928 41.4555 90.968 41.4544 90.3442 41.4534C89.9979 41.4534 89.9179 41.3724 89.9179 41.0133C89.9169 39.3319 89.9169 37.6514 89.9169 35.97C89.9158 35.8602 89.9158 35.7515 89.9158 35.6273Z"></path>
<path d="M124.248 40.8347C124.249 40.8337 124.2 40.8665 124.16 40.9065C123.623 41.4482 122.971 41.7087 122.218 41.7765C121.606 41.8319 121.005 41.7939 120.419 41.6298C119.234 41.2974 118.524 40.3864 118.46 39.1296C118.412 38.1807 118.568 37.2861 119.287 36.5947C119.818 36.0838 120.488 35.857 121.187 35.7052C121.926 35.5452 122.674 35.5267 123.423 35.5513C123.649 35.5585 123.733 35.4846 123.71 35.263C123.681 34.9758 123.684 34.6824 123.628 34.4013C123.528 33.8914 123.261 33.7016 122.743 33.6688C121.861 33.6134 121.095 33.9519 120.346 34.3562C120.242 34.4126 120.144 34.4803 120.04 34.5357C119.813 34.6578 119.661 34.6229 119.526 34.4023C119.303 34.0412 119.084 33.676 118.871 33.3077C118.732 33.0656 118.768 32.9148 119.019 32.7794C119.982 32.2613 120.979 31.8355 122.076 31.7042C122.852 31.6109 123.619 31.6324 124.374 31.8622C125.437 32.1854 126.084 32.9599 126.108 34.0802C126.136 35.3502 126.092 36.6213 126.087 37.8924C126.085 38.31 126.082 38.7295 126.122 39.144C126.161 39.5369 126.362 39.8652 126.643 40.1422C126.949 40.4448 126.952 40.45 126.671 40.7854C126.427 41.0788 126.176 41.3671 125.919 41.6492C125.725 41.8626 125.518 41.9006 125.292 41.7252C124.946 41.4553 124.619 41.1537 124.248 40.8347ZM123.62 37.9909C123.635 37.9909 123.65 37.9909 123.666 37.9909C123.666 37.8124 123.659 37.6329 123.669 37.4544C123.678 37.282 123.617 37.1938 123.438 37.2133C123.004 37.2605 122.565 37.2779 122.137 37.361C121.478 37.4892 121.225 37.7847 121.116 38.4495C121.001 39.144 121.349 39.7965 121.926 39.9709C122.437 40.1258 123.258 39.8437 123.561 39.4046C123.597 39.3533 123.617 39.2805 123.618 39.2168C123.622 38.8075 123.62 38.3992 123.62 37.9909Z"></path>
<path d="M78.1287 39.2351C78.236 38.7314 78.311 38.2175 78.4578 37.7261C78.9287 36.1462 79.4249 34.5745 79.912 32.9998C80.0022 32.7074 80.1055 32.4191 80.1865 32.1247C80.2412 31.9256 80.3495 31.8549 80.551 31.8579C81.2083 31.8672 81.8665 31.86 82.5237 31.862C82.8164 31.8631 82.8549 31.9154 82.7536 32.1975C82.2928 33.486 81.8311 34.7746 81.3652 36.061C80.5905 38.2031 79.8259 40.3493 79.0259 42.4811C78.8214 43.0258 78.5378 43.5501 78.2229 44.0394C77.6608 44.9145 76.7687 45.2972 75.8107 45.5475C75.7377 45.567 75.6638 45.5844 75.5889 45.5977C75.2496 45.6562 75.1676 45.6152 75.0046 45.3064C74.8456 45.0058 74.6835 44.7073 74.5296 44.4036C74.4061 44.1584 74.4516 44.0476 74.7058 43.9563C74.88 43.8937 75.0572 43.8404 75.2314 43.7778C76.1155 43.4598 76.6299 42.7765 76.9914 41.9456C77.0542 41.8009 77.1028 41.6491 77.1768 41.4521C77.0036 41.4521 76.872 41.4418 76.7423 41.4552C76.5762 41.4726 76.5064 41.3947 76.4547 41.2438C75.4582 38.279 74.4577 35.3162 73.4582 32.3524C73.359 32.058 73.4045 31.9964 73.7124 31.9626C74.3139 31.8959 74.9144 31.8169 75.517 31.7605C75.8552 31.7287 75.8998 31.7728 75.996 32.1082C76.6623 34.4186 77.3277 36.7289 77.995 39.0392C78.0153 39.109 78.0446 39.1756 78.07 39.2434C78.0912 39.2413 78.1095 39.2382 78.1287 39.2351Z"></path>
<path d="M98.8677 37.4083C98.0495 37.4083 97.2322 37.4145 96.415 37.4042C96.2034 37.4012 96.1446 37.4699 96.1456 37.6802C96.1497 38.8087 96.7219 39.6335 97.6717 39.8346C98.2733 39.9618 98.8667 39.891 99.4308 39.6633C99.7721 39.5258 100.097 39.338 100.413 39.1462C100.613 39.0251 100.748 39.0293 100.877 39.2303C101.063 39.5248 101.258 39.813 101.448 40.1044C101.614 40.3588 101.608 40.4275 101.362 40.605C100.775 41.0308 100.137 41.3509 99.4328 41.5273C98.3361 41.8012 97.2444 41.8012 96.1872 41.3724C94.7583 40.7938 93.939 39.6848 93.6079 38.1911C93.3385 36.9795 93.3587 35.7577 93.7365 34.583C94.2509 32.9857 95.3092 31.9516 97.0095 31.7013C97.7973 31.5854 98.573 31.6459 99.3204 31.9249C100.63 32.4143 101.289 33.4576 101.549 34.7728C101.687 35.4684 101.712 36.1885 101.76 36.9005C101.786 37.2832 101.641 37.4063 101.268 37.4073C100.469 37.4094 99.6688 37.4083 98.8677 37.4083ZM97.6869 35.6376C98.0991 35.6376 98.5123 35.6315 98.9244 35.6407C99.1209 35.6448 99.1999 35.572 99.1786 35.3709C99.1503 35.1011 99.1594 34.8251 99.1098 34.5594C98.9893 33.9213 98.567 33.5438 97.8976 33.4402C97.3305 33.3519 96.7694 33.6351 96.4758 34.1573C96.2621 34.5379 96.2115 34.9564 96.1831 35.3842C96.1699 35.5812 96.2418 35.6428 96.4241 35.6407C96.8454 35.6325 97.2657 35.6366 97.6869 35.6376Z"></path>
<path d="M142.1 37.4083C141.282 37.4083 140.465 37.4145 139.647 37.4042C139.441 37.4022 139.36 37.4627 139.373 37.6792C139.444 38.8036 139.864 39.5976 140.907 39.8325C141.498 39.9659 142.086 39.8941 142.643 39.6735C142.993 39.535 143.322 39.3391 143.65 39.1483C143.888 39.0098 143.962 39.0087 144.122 39.2457C144.308 39.5207 144.487 39.7987 144.668 40.0757C144.853 40.3578 144.839 40.4337 144.558 40.6358C143.825 41.1611 143.015 41.5078 142.126 41.6432C141.206 41.7838 140.295 41.7294 139.423 41.3714C137.965 40.7733 137.153 39.6366 136.829 38.1131C136.571 36.8974 136.602 35.6735 136.998 34.5071C137.526 32.9518 138.581 31.9413 140.25 31.7003C140.994 31.5925 141.729 31.6449 142.442 31.8839C143.789 32.3353 144.464 33.3694 144.783 34.6979C144.96 35.4386 145.02 36.1926 144.993 36.9539C144.982 37.2934 144.87 37.4063 144.528 37.4063C143.718 37.4094 142.909 37.4083 142.1 37.4083ZM140.914 35.6366C141.336 35.6366 141.758 35.6315 142.179 35.6387C142.378 35.6428 142.458 35.5597 142.438 35.3637C142.42 35.177 142.416 34.9893 142.391 34.8046C142.317 34.264 142.115 33.7931 141.587 33.5623C141.073 33.3376 140.558 33.3643 140.102 33.7079C139.557 34.1193 139.459 34.7338 139.419 35.3699C139.405 35.573 139.479 35.6438 139.675 35.6397C140.088 35.6315 140.501 35.6376 140.914 35.6366Z"></path>
<path d="M47.1943 25.4481C47.2794 25.4317 47.328 25.4152 47.3756 25.4152C49.4344 25.3927 51.402 25.7723 53.1752 26.8772C55.5601 28.3637 57.0164 30.5129 57.4883 33.3126C58.1809 37.4234 56.0239 41.5085 52.276 43.2474C51.1154 43.786 49.9012 44.104 48.6283 44.1717C48.1341 44.1984 47.6379 44.1758 47.2612 44.1758C49.964 43.7593 52.117 42.2748 53.6411 39.8506C54.6821 38.1938 55.1652 36.3626 55.07 34.4052C54.8533 29.9097 51.5863 26.1231 47.1943 25.4481Z"></path>
<path d="M43.3536 25.4484C38.4998 26.2045 35.3241 30.7153 35.5317 35.218C35.7423 39.7801 39.1277 43.6837 43.6888 44.2212C43.226 44.2212 42.7967 44.2294 42.3663 44.2202C40.267 44.172 38.3601 43.538 36.6861 42.2484C34.684 40.7055 33.4212 38.666 33.0962 36.1474C32.6111 32.3927 33.9792 29.3827 37.0051 27.1688C38.3196 26.2086 39.8224 25.6905 41.4326 25.514C42.0665 25.4443 42.7065 25.4227 43.3425 25.3796C43.3465 25.4022 43.3506 25.4258 43.3536 25.4484Z"></path>
<path d="M113.298 36.3936C113.298 35.5237 113.293 34.6527 113.302 33.7827C113.304 33.5868 113.254 33.4985 113.048 33.516C112.881 33.5304 112.711 33.5129 112.543 33.5201C112.395 33.5273 112.329 33.4791 112.332 33.317C112.34 32.8994 112.34 32.4809 112.332 32.0623C112.329 31.9012 112.394 31.852 112.543 31.8592C112.72 31.8674 112.897 31.852 113.073 31.8633C113.255 31.8746 113.297 31.7956 113.303 31.6232C113.323 31.0015 113.362 30.3809 113.384 29.7592C113.389 29.6104 113.457 29.5489 113.587 29.517C114.2 29.3673 114.81 29.2103 115.424 29.0646C115.762 28.9836 115.89 29.1395 115.867 29.4935C115.823 30.2249 115.813 30.9584 115.785 31.6899C115.779 31.8551 115.883 31.8602 116.001 31.8602C116.541 31.8592 117.081 31.8592 117.62 31.8612C117.958 31.8622 118.006 31.9371 117.886 32.2603C117.755 32.6111 117.619 32.96 117.499 33.3139C117.446 33.4678 117.365 33.5252 117.204 33.5211C116.808 33.5109 116.411 33.5242 116.015 33.515C115.839 33.5109 115.782 33.5724 115.782 33.7509C115.788 35.4488 115.786 37.1466 115.792 38.8445C115.793 39.0127 115.823 39.1851 115.865 39.3482C115.998 39.8591 116.337 39.9791 116.963 39.9761C117.144 39.975 117.331 39.9278 117.507 39.8755C117.708 39.816 117.815 39.8837 117.858 40.0807C117.925 40.3874 117.988 40.6962 118.057 41.003C118.095 41.1743 118.035 41.2851 117.873 41.3405C116.862 41.6842 115.842 41.8134 114.805 41.4615C114.081 41.2164 113.336 40.648 113.338 39.4888C113.34 38.4567 113.338 37.4247 113.338 36.3926C113.325 36.3936 113.311 36.3936 113.298 36.3936Z"></path>
<path d="M102.45 32.2245C102.621 32.1753 102.788 32.124 102.957 32.0788C103.452 31.9475 103.951 31.8254 104.443 31.6839C104.602 31.6387 104.688 31.6787 104.734 31.8254C104.85 32.1927 104.962 32.562 105.085 32.9632C105.155 32.8862 105.224 32.8083 105.297 32.7323C105.739 32.2707 106.19 31.807 106.848 31.6931C107.159 31.6387 107.487 31.6449 107.802 31.6767C108.113 31.7085 108.214 31.9034 108.123 32.2091C107.981 32.681 107.829 33.1499 107.681 33.6197C107.62 33.8126 107.508 33.8813 107.299 33.8465C106.589 33.7285 105.967 33.9172 105.444 34.4281C105.313 34.5554 105.255 34.6877 105.255 34.8754C105.261 36.9303 105.259 38.9862 105.259 41.0411C105.259 41.4032 105.211 41.4514 104.852 41.4524C104.296 41.4535 103.739 41.4535 103.183 41.4524C102.84 41.4524 102.768 41.3806 102.768 41.0359C102.768 39.0149 102.765 36.9939 102.769 34.9719C102.771 34.0916 102.712 33.2207 102.467 32.3712C102.456 32.3322 102.457 32.2891 102.45 32.2245Z"></path>
<path d="M111.239 36.5565C111.239 38.0666 111.239 39.5768 111.239 41.0879C111.239 41.448 111.235 41.4521 110.892 41.4521C110.31 41.4531 109.728 41.4541 109.146 41.4511C108.828 41.45 108.781 41.4018 108.781 41.0787C108.78 38.1692 108.785 35.2588 108.775 32.3493C108.774 32.0826 108.875 31.9944 109.117 31.9615C109.716 31.8815 110.314 31.7861 110.911 31.6897C111.224 31.6394 111.239 31.6445 111.239 31.9749C111.24 33.5024 111.239 35.029 111.239 36.5565Z"></path>
<path d="M111.544 29.163C111.544 30.0391 110.878 30.7029 110.002 30.6988C109.154 30.6947 108.484 30.0104 108.487 29.1528C108.49 28.2961 109.181 27.6283 110.057 27.6365C110.916 27.6447 111.544 28.289 111.544 29.163Z"></path>
</svg>