<svg xmlns="http://www.w3.org/2000/svg" width="178" height="71" viewBox="0 0 178 71">
<g clip-path="url(#clip0_3164_23294)">
<path fill-rule="evenodd" clip-rule="evenodd" d="M111.556 28.8701H115.053V34.1613H122.138V28.8701H125.63V42.0823H122.138V36.2546H115.053V42.0823H111.556V28.8701Z"></path>
<path fill-rule="evenodd" clip-rule="evenodd" d="M46 28.8701H49.4977V34.1613H56.5771V28.8701H60.0958V42.0823H56.5771V36.2546H49.4977V42.0823H46V28.8701Z"></path>
<path fill-rule="evenodd" clip-rule="evenodd" d="M62.9883 28.8701H66.528V42.0823H62.9883V28.8701Z"></path>
<path fill-rule="evenodd" clip-rule="evenodd" d="M128.461 28.8701H132.001V42.0823H128.461V28.8701Z"></path>
<path fill-rule="evenodd" clip-rule="evenodd" d="M67.8223 28.8701H81.5762V31.0739H76.4375V42.0823H72.9609V31.0739H67.8223V28.8701Z"></path>
<path fill-rule="evenodd" clip-rule="evenodd" d="M84.6 37.028L87.0352 31.1372L89.4546 37.028H84.6ZM90.3382 39.1318L91.5479 42.0878H95.4979L89.26 28.9019H84.8366L78.5566 42.0878H82.4856L83.7163 39.1318H90.3382Z"></path>
<path fill-rule="evenodd" clip-rule="evenodd" d="M106.144 33.3569H109.726C109.684 30.9638 107.622 28.6759 102.799 28.6233C99.2119 28.597 94.8727 30.0697 94.8516 35.4608C94.8306 40.8519 99.2592 42.4508 102.799 42.3667C106.055 42.2562 109.684 41.3516 109.836 37.3385H106.228C106.123 39.8421 104.124 40.3365 102.799 40.3575C101.474 40.3785 98.6544 40.0788 98.5912 35.5029C98.5492 31.1847 101.095 30.5799 102.799 30.5799C104.503 30.5799 106.123 31.3793 106.144 33.3412V33.3569Z"></path>
</g>
<defs>
<clipPath id="clip0_3164_23294">
<rect width="86.0002" height="13.7329" transform="translate(46 28.6337)"></rect>
</clipPath>
</defs>
</svg>