<svg xmlns="http://www.w3.org/2000/svg" width="178" height="71" viewBox="0 0 178 71">
  <path fill-rule="evenodd" clip-rule="evenodd" d="M60.2428 26.4012H54.2519C53.8419 26.4012 53.4933 26.6678 53.4292 27.0298L51.0063 40.7744C50.9582 41.0455 51.193 41.2901 51.5004 41.2901H54.3604C54.7704 41.2901 55.1191 41.0236 55.1831 40.6607L55.8365 36.9537C55.8998 36.5908 56.2492 36.3243 56.6585 36.3243H58.5547C62.5011 36.3243 64.7786 34.6157 65.3733 31.2301C65.6413 29.7487 65.3846 28.5847 64.6095 27.7696C63.7581 26.8746 62.2479 26.4012 60.2428 26.4012M60.9337 31.4213C60.6061 33.3444 58.9639 33.3444 57.3756 33.3444H56.4716L57.1059 29.7526C57.1435 29.5355 57.3537 29.3755 57.5991 29.3755H58.0133C59.0951 29.3755 60.1156 29.3755 60.6432 29.9274C60.9575 30.2565 61.0539 30.7456 60.9337 31.4213"></path>
  <path fill-rule="evenodd" clip-rule="evenodd" d="M77.6524 31.6073H74.8231C74.5821 31.6073 74.3738 31.7684 74.3367 31.9866L74.2114 32.7093L74.0137 32.4473C73.4012 31.6356 72.0352 31.3643 70.6719 31.3643C67.5454 31.3643 64.8751 33.5263 64.3551 36.5594C64.0848 38.0719 64.4693 39.5186 65.4089 40.5276C66.2714 41.4551 67.5048 41.8415 68.9726 41.8415C71.492 41.8415 72.8887 40.3626 72.8887 40.3626L72.7626 41.0804C72.7152 41.355 72.9468 41.6009 73.2483 41.6009H75.7966C76.202 41.6009 76.5441 41.3327 76.608 40.9677L78.1371 32.1263C78.1855 31.8543 77.9546 31.6073 77.6524 31.6073M73.7089 36.635C73.4359 38.1107 72.1529 39.1013 70.5169 39.1013C69.6954 39.1013 69.0387 38.861 68.6171 38.4049C68.1992 37.9522 68.04 37.3078 68.1731 36.5899C68.4281 35.1269 69.7327 34.1037 71.3438 34.1037C72.1471 34.1037 72.8 34.3476 73.2305 34.8074C73.6615 35.2718 73.8325 35.9203 73.7089 36.635"></path>
  <path fill-rule="evenodd" clip-rule="evenodd" d="M93.3248 31.3643H90.4406C90.1654 31.3643 89.9067 31.485 89.7508 31.687L85.7727 36.8608L84.0865 31.8888C83.9807 31.5778 83.6554 31.3643 83.2872 31.3643H80.4531C80.1087 31.3643 79.8693 31.6614 79.9791 31.9477L83.1559 40.1794L80.1691 43.9023C79.9341 44.1958 80.1708 44.5987 80.5766 44.5987H83.4576C83.7308 44.5987 83.9868 44.4811 84.142 44.2832L93.735 32.0568C93.9646 31.7644 93.7289 31.3643 93.3248 31.3643"></path>
  <path fill-rule="evenodd" clip-rule="evenodd" d="M102.465 26.4012H96.4728C96.0638 26.4012 95.7151 26.6678 95.6511 27.0298L93.228 40.7744C93.1799 41.0455 93.4144 41.2901 93.7202 41.2901H96.7953C97.0809 41.2901 97.3253 41.1037 97.3697 40.8495L98.0575 36.9537C98.1206 36.5908 98.4702 36.3243 98.8793 36.3243H100.775C104.722 36.3243 106.999 34.6157 107.595 31.2301C107.864 29.7487 107.605 28.5847 106.83 27.7696C105.979 26.8746 104.47 26.4012 102.465 26.4012M103.156 31.4213C102.83 33.3444 101.187 33.3444 99.5979 33.3444H98.6949L99.33 29.7526C99.3677 29.5355 99.5763 29.3755 99.8222 29.3755H100.237C101.318 29.3755 102.339 29.3755 102.867 29.9274C103.181 30.2565 103.277 30.7456 103.156 31.4213"></path>
  <path fill-rule="evenodd" clip-rule="evenodd" d="M119.871 31.6073H117.043C116.801 31.6073 116.594 31.7684 116.558 31.9866L116.432 32.7093L116.234 32.4473C115.621 31.6356 114.256 31.3643 112.893 31.3643C109.766 31.3643 107.097 33.5263 106.577 36.5594C106.307 38.0719 106.69 39.5186 107.63 40.5276C108.494 41.4551 109.726 41.8415 111.194 41.8415C113.713 41.8415 115.11 40.3626 115.11 40.3626L114.984 41.0804C114.936 41.355 115.168 41.6009 115.471 41.6009H118.019C118.422 41.6009 118.766 41.3327 118.829 40.9677L120.359 32.1263C120.406 31.8543 120.174 31.6073 119.871 31.6073M115.927 36.635C115.656 38.1107 114.371 39.1013 112.735 39.1013C111.915 39.1013 111.256 38.861 110.835 38.4049C110.417 37.9522 110.259 37.3078 110.391 36.5899C110.648 35.1269 111.95 34.1037 113.562 34.1037C114.365 34.1037 115.018 34.3476 115.449 34.8074C115.881 35.2718 116.052 35.9203 115.927 36.635"></path>
  <path fill-rule="evenodd" clip-rule="evenodd" d="M123.358 26.779L120.975 40.7742C120.928 41.0455 121.156 41.2901 121.452 41.2901H123.848C124.246 41.2901 124.583 41.0236 124.645 40.6607L126.994 26.9178C127.041 26.6464 126.813 26.4012 126.517 26.4012H123.835C123.598 26.4021 123.394 26.5619 123.358 26.779"></path>
</svg>