<svg width="332" height="41" viewBox="0 0 332 41" fill="none" xmlns="http://www.w3.org/2000/svg">
<path d="M97.4421 15.7486H93.6794C91.2606 15.7486 89.9168 17.63 89.9168 20.5864V31.6056H82.7946V15.7486H79.8382C77.4193 15.7486 76.0755 17.63 76.0755 20.5864V31.6056H68.9533V9.83586H76.0755V13.1954C77.2849 10.6421 78.8975 9.83586 81.182 9.83586H89.9168V13.1954C91.1262 10.6421 92.7388 9.83586 95.0233 9.83586H97.3077V15.7486H97.4421ZM67.3407 22.4677H52.5587C52.9619 24.8866 54.4401 26.3648 56.9933 26.3648C58.8747 26.3648 60.2185 25.5585 60.6216 24.2147L66.9376 25.9616C65.325 29.7243 61.5623 32.0088 56.9933 32.0088C49.1992 32.0088 45.7053 25.9616 45.7053 20.7208C45.7053 15.6143 48.7961 9.43271 56.5902 9.43271C64.7874 9.43271 67.4751 15.6143 67.4751 20.1832C67.4751 21.2583 67.4751 21.9302 67.3407 22.4677ZM60.4872 18.1675C60.3529 16.2862 59.009 14.5392 56.5902 14.5392C54.3057 14.5392 52.9619 15.4799 52.5587 18.1675H60.4872ZM33.2078 31.6056H39.5238L47.3179 9.83586H40.1957L36.433 22.6021L32.5359 9.83586H25.4137L33.2078 31.6056ZM4.04707 31.6056H11.1693V15.7486H17.8883V31.74H24.8762V9.83586H11.1693V8.49205C11.1693 7.01385 12.2443 6.07318 13.8569 6.07318H17.8883V0.1604H12.6475C7.54098 0.1604 4.04707 3.38555 4.04707 8.0889V9.83586H0.015625V15.7486H4.04707V31.6056Z" fill="#404145"/>
<path d="M103.758 40.4747V9.83576H107.924V13.0609C109.267 10.9108 111.821 9.43262 114.777 9.43262C121.227 9.43262 124.99 14.136 124.99 20.7207C124.99 27.171 121.093 32.0087 114.508 32.0087C111.686 32.0087 109.133 30.6649 107.789 28.6492V40.4747H103.758ZM120.824 20.7207C120.824 16.1517 118.137 13.1953 114.24 13.1953C110.208 13.1953 107.655 16.2861 107.655 20.7207C107.655 25.1552 110.208 28.246 114.24 28.246C118.137 28.246 120.824 25.2896 120.824 20.7207Z" fill="#404145"/>
<path d="M284.902 40.4747V9.83576H289.068V13.0609C290.412 10.9108 292.965 9.43262 295.922 9.43262C302.372 9.43262 306.135 14.136 306.135 20.7207C306.135 27.171 302.238 32.0087 295.653 32.0087C292.831 32.0087 290.278 30.6649 288.934 28.6492V40.4747H284.902ZM301.969 20.7207C301.969 16.1517 299.281 13.1953 295.384 13.1953C291.353 13.1953 288.799 16.2861 288.799 20.7207C288.799 25.1552 291.353 28.246 295.384 28.246C299.281 28.246 301.969 25.2896 301.969 20.7207Z" fill="#404145"/>
<path d="M161.006 13.4637H157.781C153.75 13.4637 152.406 17.092 152.406 21.7954V31.7396H148.24V9.83545H152.406V14.0013C153.347 11.0449 155.094 9.83545 158.184 9.83545H160.872V13.4637H161.006Z" fill="#404145"/>
<path d="M163.962 2.98267H168.127V9.83612H174.578V13.4644H168.127V24.2149C168.127 26.6338 169.337 27.8432 171.487 27.8432H174.578V31.7403H171.084C166.649 31.7403 163.827 29.0527 163.827 24.6181V13.4644H159.393V9.83612H163.827L163.962 2.98267Z" fill="#404145"/>
<path d="M235.59 24.6177H239.621C239.89 27.171 241.771 28.6492 244.593 28.6492C247.147 28.6492 248.759 27.3053 248.759 25.6928C248.759 19.78 236.262 25.1552 236.262 15.7485C236.262 11.9859 239.487 9.43262 244.056 9.43262C249.028 9.43262 252.522 12.2546 252.656 16.4204H248.625C248.356 13.8672 245.803 12.9265 243.921 12.9265C241.637 12.9265 240.159 14.0016 240.159 15.7485C240.159 21.2582 252.791 15.6142 252.791 25.6928C252.791 29.7242 249.565 32.2775 244.459 32.2775C239.353 32.1431 235.859 29.3211 235.59 24.6177Z" fill="#404145"/>
<path d="M145.82 17.495V31.7394H141.52V28.1111C140.445 30.53 137.623 32.0082 134.264 32.0082C129.695 32.0082 126.738 29.3205 126.738 25.2891C126.738 20.9889 130.098 18.4356 135.339 18.4356H139.908C140.848 18.4356 141.386 17.8981 141.386 17.0918C141.386 14.4042 139.505 12.5229 136.011 12.5229C132.92 12.5229 130.635 14.4042 130.635 16.6887H126.738C127.141 12.3885 131.038 9.16333 136.279 9.16333C142.058 9.29771 145.82 12.6572 145.82 17.495ZM141.52 22.0639V21.5264H135.742C132.785 21.5264 130.904 23.0046 130.904 25.2891C130.904 27.3048 132.517 28.6486 135.07 28.6486C139.236 28.783 141.52 26.2298 141.52 22.0639Z" fill="#404145"/>
<path d="M231.685 13.4643C227.654 13.4643 226.31 17.0926 226.31 21.9304V31.8746H222.01V9.70166H226.31V14.0019C227.385 11.0455 229.132 9.70166 232.223 9.70166H234.91V13.33H231.685V13.4643Z" fill="#404145"/>
<path d="M177.13 9.70173H181.431V13.5988C182.64 10.7768 185.193 9.29858 188.553 9.29858C193.525 9.29858 196.75 12.9269 196.75 18.1678V31.7403H192.45V18.974C192.45 15.4801 190.434 13.0613 187.209 13.0613C183.715 13.0613 181.296 15.8833 181.296 19.7803V31.7403H176.996L177.13 9.70173Z" fill="#404145"/>
<path d="M254.537 2.8479H258.837V13.5984C260.046 10.7764 262.6 9.2982 265.959 9.2982C270.931 9.2982 274.156 12.9265 274.156 18.1674V31.7399H269.856V18.9737C269.856 15.4797 267.84 13.0609 264.615 13.0609C261.121 13.0609 258.703 15.8829 258.703 19.78V31.7399H254.402L254.537 2.8479Z" fill="#404145"/>
<path d="M215.83 24.6177C215.159 27.171 213.143 28.5148 209.918 28.5148C206.021 28.5148 203.333 25.6928 202.93 21.5269H219.862C219.862 21.1238 219.996 20.4519 219.996 19.9144C219.996 14.2703 216.368 9.43262 209.515 9.43262C202.661 9.43262 198.898 14.5391 198.898 20.7207C198.898 26.9022 203.199 32.2775 210.052 32.2775C215.024 32.2775 218.787 29.7242 219.996 25.8271L215.83 24.6177ZM209.38 12.7922C213.008 12.7922 215.293 15.0766 215.562 18.4362H203.064C203.736 14.8079 206.021 12.7922 209.38 12.7922Z" fill="#404145"/>
<path d="M307.346 24.6179H311.377C311.646 27.1711 313.527 28.6493 316.349 28.6493C318.902 28.6493 320.515 27.3055 320.515 25.6929C320.515 19.7801 308.018 25.1554 308.018 15.8831C308.018 12.1204 311.243 9.56714 315.812 9.56714C320.784 9.56714 324.143 12.2548 324.412 16.4206H320.381C320.112 13.8673 317.693 12.9267 315.812 12.9267C313.527 12.9267 312.049 14.0017 312.049 15.7487C312.049 21.2583 324.681 15.6143 324.681 25.6929C324.681 29.7243 321.456 32.2776 316.484 32.2776C310.974 32.1432 307.614 29.3212 307.346 24.6179Z" fill="#404145"/>
<path d="M331.803 29.3213C331.803 30.9339 330.594 32.1433 329.115 32.1433C327.637 32.1433 326.428 30.9339 326.428 29.4557C326.428 27.9775 327.637 26.768 329.115 26.768C330.459 26.6336 331.803 27.8431 331.803 29.3213Z" fill="#404145"/>
<path d="M281.677 9.83521H277.377V31.8737H281.677V9.83521Z" fill="#404145"/>
<path d="M279.529 0.0253906C278.723 0.0253906 278.185 0.294154 277.513 0.831679C276.976 1.36921 276.707 2.04111 276.707 2.8474C276.707 3.51931 276.976 4.19121 277.513 4.72874C278.051 5.26626 278.723 5.53503 279.529 5.53503C280.335 5.53503 280.873 5.26626 281.545 4.72874C282.082 4.19121 282.351 3.51931 282.351 2.8474C282.217 1.23482 281.007 0.0253906 279.529 0.0253906Z" fill="#404145"/>
</svg>
